<svg xmlns="http://www.w3.org/2000/svg" xmlns:xlink="http://www.w3.org/1999/xlink" width="100" zoomAndPan="magnify" viewBox="0 0 75 37.5" height="50" preserveAspectRatio="xMidYMid meet" version="1.0"><defs><g/></defs><g fill="#ffffff" fill-opacity="1"><g transform="translate(0.493421, 22.026102)"><g><path d="M 11.515625 -12.578125 C 11.484375 -12.097656 11.253906 -11.769531 10.828125 -11.59375 L 10.828125 -2.265625 L 10.859375 -2.203125 C 10.859375 -2.160156 10.867188 -2.128906 10.890625 -2.109375 L 10.890625 -2.078125 L 10.921875 -2.0625 C 10.929688 -2.03125 10.9375 -2 10.9375 -1.96875 C 10.945312 -1.9375 10.960938 -1.898438 10.984375 -1.859375 C 10.992188 -1.816406 11.015625 -1.769531 11.046875 -1.71875 C 11.078125 -1.664062 11.109375 -1.613281 11.140625 -1.5625 L 10.921875 -1.5625 L 10.875 -1.59375 L 10.75 -1.59375 L 10.734375 -1.609375 C 10.710938 -1.617188 10.601562 -1.625 10.40625 -1.625 L 10.34375 -1.640625 L 10.296875 -1.640625 C 9.078125 -1.640625 8.023438 -1.109375 7.140625 -0.046875 L 6.5625 -0.625 C 6.476562 -0.664062 6.425781 -0.710938 6.40625 -0.765625 L 6.40625 2.59375 L 6.09375 2.59375 C 5.382812 2.59375 4.851562 2.257812 4.5 1.59375 C 4.164062 1.75 3.859375 2.035156 3.578125 2.453125 L 3.609375 2.390625 C 3.609375 2.398438 3.597656 2.429688 3.578125 2.484375 C 3.566406 2.503906 3.554688 2.515625 3.546875 2.515625 C 3.546875 2.523438 3.539062 2.539062 3.53125 2.5625 L 3.5 2.59375 L 2.5 2.59375 L 2.5 2.421875 L 2.515625 2.390625 C 2.671875 1.742188 2.75 1.359375 2.75 1.234375 L 2.75 -1.4375 C 2.6875 -1.40625 2.628906 -1.375 2.578125 -1.34375 C 2.535156 -1.320312 2.484375 -1.289062 2.421875 -1.25 C 2.367188 -1.207031 2.3125 -1.164062 2.25 -1.125 C 2.195312 -1.082031 2.128906 -1.035156 2.046875 -0.984375 C 1.992188 -0.910156 1.953125 -0.847656 1.921875 -0.796875 C 1.890625 -0.742188 1.859375 -0.707031 1.828125 -0.6875 C 1.804688 -0.664062 1.78125 -0.632812 1.75 -0.59375 C 1.71875 -0.5625 1.679688 -0.519531 1.640625 -0.46875 C 1.609375 -0.445312 1.5625 -0.394531 1.5 -0.3125 C 1.46875 -0.269531 1.441406 -0.238281 1.421875 -0.21875 C 1.398438 -0.195312 1.378906 -0.175781 1.359375 -0.15625 C 1.242188 -0.625 1.1875 -0.945312 1.1875 -1.125 C 1.1875 -2.34375 1.707031 -3.171875 2.75 -3.609375 L 2.75 -5.90625 C 2.71875 -5.9375 2.675781 -5.960938 2.625 -5.984375 C 2.601562 -6.003906 2.578125 -6.019531 2.546875 -6.03125 C 2.523438 -6.039062 2.5 -6.054688 2.46875 -6.078125 L 2.515625 -6.046875 L 2.453125 -6.046875 L 2.421875 -6.078125 L 2.3125 -6.078125 L 2.28125 -6.046875 C 1.976562 -6.046875 1.828125 -5.929688 1.828125 -5.703125 L 1.8125 -5.6875 L 1.8125 -5.65625 L 1.828125 -5.625 L 1.859375 -5.625 L 1.859375 -5.578125 L 1.875 -5.578125 L 1.875 -5.359375 C 1.570312 -5.421875 1.328125 -5.582031 1.140625 -5.84375 C 0.953125 -6.101562 0.859375 -6.394531 0.859375 -6.71875 C 0.859375 -7.707031 1.472656 -8.203125 2.703125 -8.203125 L 2.75 -8.171875 L 2.75 -11.328125 C 2.75 -11.484375 2.671875 -11.640625 2.515625 -11.796875 C 2.359375 -11.953125 2.1875 -12.03125 2 -12.03125 C 1.726562 -12.03125 1.503906 -11.898438 1.328125 -11.640625 C 1.148438 -11.378906 1.0625 -11.109375 1.0625 -10.828125 L 0.90625 -10.828125 L 0.921875 -10.8125 C 0.753906 -10.96875 0.671875 -11.171875 0.671875 -11.421875 C 0.648438 -11.453125 0.640625 -11.476562 0.640625 -11.5 C 0.640625 -11.519531 0.632812 -11.546875 0.625 -11.578125 C 0.613281 -11.617188 0.609375 -11.6875 0.609375 -11.78125 C 0.609375 -12.351562 0.832031 -12.847656 1.28125 -13.265625 C 1.726562 -13.679688 2.242188 -13.890625 2.828125 -13.890625 L 2.9375 -13.9375 C 4.382812 -13.820312 5.109375 -12.992188 5.109375 -11.453125 C 5.109375 -11.347656 5.097656 -11.269531 5.078125 -11.21875 C 5.097656 -11.21875 5.125 -11.222656 5.15625 -11.234375 L 5.15625 -11.21875 C 5.175781 -11.257812 5.207031 -11.285156 5.25 -11.296875 C 5.269531 -11.304688 5.285156 -11.3125 5.296875 -11.3125 C 5.316406 -11.320312 5.332031 -11.335938 5.34375 -11.359375 C 5.363281 -11.367188 5.382812 -11.378906 5.40625 -11.390625 C 5.425781 -11.410156 5.453125 -11.429688 5.484375 -11.453125 C 5.546875 -11.492188 5.613281 -11.523438 5.6875 -11.546875 L 5.671875 -11.546875 L 5.6875 -11.578125 L 5.734375 -11.59375 L 5.734375 -13.90625 L 6.390625 -13.90625 L 6.390625 -12.03125 C 7.242188 -12.488281 8.210938 -13.171875 9.296875 -14.078125 C 9.867188 -13.378906 10.34375 -12.96875 10.71875 -12.84375 C 10.71875 -12.820312 10.828125 -12.8125 11.046875 -12.8125 C 11.109375 -12.8125 11.148438 -12.820312 11.171875 -12.84375 L 11.203125 -12.84375 L 11.25 -12.875 L 11.359375 -12.875 L 11.375 -12.90625 L 11.53125 -12.90625 L 11.53125 -12.609375 Z M 5.734375 1.640625 L 5.734375 -10.640625 C 5.691406 -10.617188 5.644531 -10.59375 5.59375 -10.5625 C 5.5625 -10.550781 5.535156 -10.535156 5.515625 -10.515625 C 5.503906 -10.503906 5.488281 -10.492188 5.46875 -10.484375 C 5.457031 -10.484375 5.4375 -10.472656 5.40625 -10.453125 L 5.375 -10.453125 L 5.078125 -10.3125 L 5.078125 0.59375 C 5.078125 1.039062 5.296875 1.390625 5.734375 1.640625 Z M 8.46875 -9.421875 L 8.5 -9.421875 L 8.5 -11.484375 C 8.289062 -11.484375 8.03125 -11.59375 7.71875 -11.8125 C 7.476562 -11.632812 7.285156 -11.515625 7.140625 -11.453125 C 7.097656 -11.421875 7.050781 -11.390625 7 -11.359375 C 6.957031 -11.328125 6.90625 -11.296875 6.84375 -11.265625 C 6.769531 -11.222656 6.695312 -11.179688 6.625 -11.140625 C 6.5625 -11.109375 6.5 -11.066406 6.4375 -11.015625 L 6.40625 -10.96875 L 6.40625 -9.484375 C 6.632812 -9.335938 6.96875 -9.265625 7.40625 -9.265625 L 7.6875 -9.265625 C 8.039062 -9.265625 8.300781 -9.316406 8.46875 -9.421875 Z M 8.125 -5.5625 C 8.207031 -5.539062 8.28125 -5.523438 8.34375 -5.515625 C 8.40625 -5.503906 8.457031 -5.488281 8.5 -5.46875 L 8.5 -8.578125 C 8.300781 -8.503906 8.039062 -8.46875 7.71875 -8.46875 L 7.109375 -8.46875 C 6.910156 -8.46875 6.675781 -8.519531 6.40625 -8.625 L 6.40625 -5.5 C 6.4375 -5.5 6.46875 -5.503906 6.5 -5.515625 L 6.5625 -5.515625 C 6.6875 -5.523438 6.800781 -5.535156 6.90625 -5.546875 C 7.019531 -5.554688 7.132812 -5.5625 7.25 -5.5625 C 7.46875 -5.570312 7.566406 -5.582031 7.546875 -5.59375 L 7.8125 -5.59375 C 7.851562 -5.59375 7.957031 -5.582031 8.125 -5.5625 Z M 7.484375 -3.03125 C 7.648438 -2.90625 7.804688 -2.773438 7.953125 -2.640625 C 8.109375 -2.515625 8.257812 -2.382812 8.40625 -2.25 L 8.5 -2.3125 L 8.5 -4.59375 L 8.40625 -4.65625 L 8.3125 -4.6875 C 8.269531 -4.695312 8.226562 -4.703125 8.1875 -4.703125 C 8.144531 -4.710938 8.101562 -4.726562 8.0625 -4.75 L 8.078125 -4.71875 C 8.078125 -4.707031 8.070312 -4.703125 8.0625 -4.703125 L 8.0625 -4.71875 C 8.019531 -4.71875 7.984375 -4.726562 7.953125 -4.75 L 7.859375 -4.75 C 7.804688 -4.75 7.757812 -4.753906 7.71875 -4.765625 C 7.675781 -4.765625 7.65625 -4.769531 7.65625 -4.78125 C 7.65625 -4.78125 7.648438 -4.78125 7.640625 -4.78125 C 7.640625 -4.789062 7.632812 -4.796875 7.625 -4.796875 L 7.21875 -4.796875 C 7.1875 -4.796875 7.15625 -4.789062 7.125 -4.78125 C 7.09375 -4.78125 7.054688 -4.773438 7.015625 -4.765625 C 6.972656 -4.765625 6.925781 -4.757812 6.875 -4.75 C 6.832031 -4.738281 6.785156 -4.722656 6.734375 -4.703125 C 6.691406 -4.691406 6.65625 -4.679688 6.625 -4.671875 C 6.601562 -4.660156 6.582031 -4.65625 6.5625 -4.65625 C 6.476562 -4.632812 6.425781 -4.625 6.40625 -4.625 L 6.40625 -3.6875 C 6.613281 -3.59375 6.804688 -3.488281 6.984375 -3.375 C 7.160156 -3.257812 7.328125 -3.144531 7.484375 -3.03125 Z M 7.484375 -3.03125 "/></g></g></g><g fill="#ffffff" fill-opacity="1"><g transform="translate(12.640777, 22.026102)"><g><path d="M 7.984375 -2.65625 C 8.066406 -2.25 8.222656 -1.992188 8.453125 -1.890625 C 6.960938 -1.671875 5.769531 -1.070312 4.875 -0.09375 C 4.082031 -0.914062 2.691406 -1.429688 0.703125 -1.640625 C 0.640625 -1.640625 0.609375 -1.660156 0.609375 -1.703125 C 0.609375 -1.773438 0.691406 -1.921875 0.859375 -2.140625 C 1.078125 -2.441406 1.25 -2.65625 1.375 -2.78125 L 1.375 -8.015625 C 1.15625 -8.285156 1.046875 -8.507812 1.046875 -8.6875 C 2.472656 -8.769531 3.632812 -9.1875 4.53125 -9.9375 C 6.125 -9.144531 7.40625 -8.707031 8.375 -8.625 C 8.113281 -8.320312 7.984375 -8.101562 7.984375 -7.96875 Z M 5.5625 -7.6875 C 4.4375 -8.15625 3.804688 -8.390625 3.671875 -8.390625 C 3.648438 -8.390625 3.640625 -8.378906 3.640625 -8.359375 L 3.640625 -2.921875 C 3.847656 -2.691406 4.488281 -2.460938 5.5625 -2.234375 Z M 5.5625 -7.6875 "/></g></g></g><g fill="#ffffff" fill-opacity="1"><g transform="translate(21.702124, 22.026102)"><g><path d="M 2.640625 -10.125 C 3.484375 -9.625 3.976562 -9.257812 4.125 -9.03125 L 4.1875 -9.03125 C 4.226562 -9.03125 4.3125 -9.050781 4.4375 -9.09375 C 4.613281 -9.15625 4.828125 -9.257812 5.078125 -9.40625 C 5.328125 -9.550781 5.625 -9.738281 5.96875 -9.96875 L 6.265625 -10.171875 C 6.953125 -9.523438 7.597656 -9.113281 8.203125 -8.9375 C 8.171875 -8.65625 8.007812 -8.398438 7.71875 -8.171875 C 7.445312 -7.960938 7.101562 -7.84375 6.6875 -7.8125 C 6.632812 -7.800781 6.585938 -7.789062 6.546875 -7.78125 C 6.503906 -7.78125 6.460938 -7.78125 6.421875 -7.78125 C 5.972656 -7.78125 5.445312 -7.867188 4.84375 -8.046875 C 4.71875 -8.066406 4.613281 -8.078125 4.53125 -8.078125 C 4.289062 -8.078125 4.171875 -7.992188 4.171875 -7.828125 L 4.171875 -2.171875 L 5.0625 -2.171875 C 4.144531 -1.628906 3.523438 -1.113281 3.203125 -0.625 C 2.953125 -0.257812 2.804688 -0.078125 2.765625 -0.078125 L 2.765625 -0.109375 L 2.75 -0.140625 C 2.738281 -0.148438 2.726562 -0.164062 2.71875 -0.1875 C 2.71875 -0.21875 2.710938 -0.242188 2.703125 -0.265625 C 2.648438 -0.367188 2.566406 -0.503906 2.453125 -0.671875 C 2.128906 -1.128906 1.597656 -1.570312 0.859375 -2 L 0.84375 -2.109375 L 1.640625 -2.109375 L 1.640625 -7.5 C 1.410156 -8.164062 1.066406 -8.519531 0.609375 -8.5625 Z M 2.640625 -10.125 "/></g></g></g><g fill="#ffffff" fill-opacity="1"><g transform="translate(30.517573, 22.026102)"><g><path d="M 3.609375 -0.109375 C 2.878906 -0.785156 2.1875 -1.125 1.53125 -1.125 C 1.195312 -1.125 0.960938 -1.003906 0.828125 -0.765625 L 0.828125 -1.0625 C 0.828125 -1.101562 0.878906 -1.257812 0.984375 -1.53125 C 1.179688 -1.945312 1.441406 -2.242188 1.765625 -2.421875 L 1.765625 -8.390625 L 1.421875 -8.390625 C 1.328125 -8.328125 1.210938 -8.285156 1.078125 -8.265625 C 1.066406 -8.242188 1.003906 -8.222656 0.890625 -8.203125 L 0.875 -8.171875 L 0.84375 -8.171875 L 0.609375 -8.03125 L 0.609375 -8.171875 C 0.609375 -8.242188 0.613281 -8.285156 0.625 -8.296875 L 0.625 -8.359375 L 0.65625 -8.40625 C 0.65625 -8.457031 0.660156 -8.5 0.671875 -8.53125 L 0.671875 -8.8125 C 0.679688 -8.832031 0.695312 -8.875 0.71875 -8.9375 L 0.71875 -9.0625 L 0.6875 -9.140625 L 0.6875 -9.328125 C 0.632812 -9.472656 0.609375 -9.71875 0.609375 -10.0625 C 0.703125 -10.007812 0.78125 -9.96875 0.84375 -9.9375 C 0.914062 -9.90625 0.988281 -9.875 1.0625 -9.84375 C 1.164062 -9.8125 1.257812 -9.789062 1.34375 -9.78125 C 1.351562 -9.789062 1.4375 -9.796875 1.59375 -9.796875 L 1.765625 -9.796875 L 1.765625 -10.71875 L 1.75 -10.765625 L 1.75 -11 C 1.738281 -11 1.722656 -11.019531 1.703125 -11.0625 C 1.703125 -11.070312 1.695312 -11.082031 1.6875 -11.09375 C 1.6875 -11.113281 1.679688 -11.128906 1.671875 -11.140625 C 1.671875 -11.171875 1.660156 -11.203125 1.640625 -11.234375 L 1.640625 -11.265625 C 1.609375 -11.285156 1.59375 -11.335938 1.59375 -11.421875 L 1.75 -11.46875 L 1.765625 -11.421875 L 1.875 -11.421875 L 1.875 -11.40625 C 2.644531 -11.40625 3.378906 -11.832031 4.078125 -12.6875 L 4.078125 -12.421875 L 4.046875 -12.390625 C 4.023438 -12.367188 4.015625 -12.332031 4.015625 -12.28125 C 4.015625 -12.25 4.007812 -12.210938 4 -12.171875 C 3.988281 -12.140625 3.972656 -12.101562 3.953125 -12.0625 L 3.953125 -12.046875 C 3.953125 -11.992188 3.953125 -11.957031 3.953125 -11.9375 C 3.890625 -11.738281 3.859375 -11.578125 3.859375 -11.453125 L 3.859375 -9.796875 L 4.5 -9.796875 L 4.53125 -9.78125 C 4.757812 -9.78125 5.003906 -9.875 5.265625 -10.0625 L 5.265625 -9.84375 C 5.242188 -9.789062 5.234375 -9.75 5.234375 -9.71875 C 5.191406 -9.632812 5.171875 -9.457031 5.171875 -9.1875 L 5.203125 -9.1875 C 5.203125 -8.90625 5.238281 -8.519531 5.3125 -8.03125 L 5.078125 -8.171875 L 5.046875 -8.171875 C 4.960938 -8.210938 4.875 -8.242188 4.78125 -8.265625 C 4.695312 -8.285156 4.613281 -8.300781 4.53125 -8.3125 C 4.332031 -8.34375 4.109375 -8.367188 3.859375 -8.390625 L 3.859375 -2.671875 C 3.960938 -2.566406 4.070312 -2.515625 4.1875 -2.515625 L 4.25 -2.515625 C 4.289062 -2.492188 4.316406 -2.472656 4.328125 -2.453125 C 4.390625 -2.410156 4.429688 -2.390625 4.453125 -2.390625 C 4.484375 -2.378906 4.503906 -2.375 4.515625 -2.375 C 4.523438 -2.363281 4.53125 -2.351562 4.53125 -2.34375 C 4.539062 -2.34375 4.550781 -2.34375 4.5625 -2.34375 L 4.53125 -2.34375 C 4.570312 -2.320312 4.628906 -2.28125 4.703125 -2.21875 C 4.773438 -2.164062 4.847656 -2.125 4.921875 -2.09375 L 5.109375 -2.296875 L 5.53125 -1.8125 Z M 3.609375 -0.109375 "/></g></g></g><g fill="#ffffff" fill-opacity="1"><g transform="translate(36.665021, 22.026102)"><g><path d="M 7.296875 -12.53125 C 7.191406 -12.175781 6.976562 -11.882812 6.65625 -11.65625 C 6.320312 -11.414062 5.976562 -11.289062 5.625 -11.28125 C 5.613281 -11.257812 5.539062 -11.25 5.40625 -11.25 C 4.820312 -11.25 4.390625 -11.398438 4.109375 -11.703125 L 4.046875 -11.640625 C 4.023438 -11.628906 3.992188 -11.613281 3.953125 -11.59375 C 3.921875 -11.582031 3.882812 -11.570312 3.84375 -11.5625 L 3.859375 -11.5625 L 3.84375 -11.53125 L 3.84375 -9.203125 L 3.859375 -9.1875 C 4.734375 -9.1875 5.21875 -9.210938 5.3125 -9.265625 C 5.332031 -9.265625 5.359375 -9.265625 5.390625 -9.265625 C 5.421875 -9.265625 5.460938 -9.265625 5.515625 -9.265625 C 5.554688 -9.273438 5.597656 -9.285156 5.640625 -9.296875 C 5.691406 -9.304688 5.75 -9.316406 5.8125 -9.328125 L 5.8125 -9.140625 L 5.78125 -9.125 L 5.78125 -9.0625 L 5.75 -9.015625 L 5.75 -8.921875 C 5.738281 -8.773438 5.726562 -8.632812 5.71875 -8.5 C 5.707031 -8.363281 5.703125 -8.226562 5.703125 -8.09375 L 5.703125 -7.984375 L 5.71875 -7.9375 L 5.71875 -7.734375 L 5.84375 -7.59375 L 5.578125 -7.59375 L 5.5625 -7.609375 C 5.5 -7.609375 5.398438 -7.617188 5.265625 -7.640625 C 5.140625 -7.660156 4.972656 -7.691406 4.765625 -7.734375 L 4.6875 -7.734375 C 4.664062 -7.734375 4.632812 -7.742188 4.59375 -7.765625 L 4.171875 -7.765625 C 4.046875 -7.765625 3.9375 -7.785156 3.84375 -7.828125 L 3.84375 -2.6875 C 3.914062 -2.644531 4.023438 -2.625 4.171875 -2.625 C 4.273438 -2.550781 4.382812 -2.515625 4.5 -2.515625 C 4.519531 -2.503906 4.582031 -2.460938 4.6875 -2.390625 C 4.738281 -2.367188 4.789062 -2.335938 4.84375 -2.296875 C 4.90625 -2.265625 4.972656 -2.222656 5.046875 -2.171875 L 5.5 -2.640625 L 5.921875 -2.234375 L 3.71875 -0.09375 C 2.789062 -0.914062 1.929688 -1.328125 1.140625 -1.328125 L 1.109375 -1.328125 L 1.0625 -1.296875 C 1.03125 -1.296875 0.992188 -1.296875 0.953125 -1.296875 C 0.921875 -1.296875 0.882812 -1.289062 0.84375 -1.28125 C 0.800781 -1.269531 0.757812 -1.257812 0.71875 -1.25 C 0.6875 -1.238281 0.648438 -1.226562 0.609375 -1.21875 C 0.765625 -1.863281 1.125 -2.3125 1.6875 -2.5625 L 1.6875 -7.859375 C 1.539062 -7.816406 1.296875 -7.796875 0.953125 -7.796875 L 0.890625 -7.765625 L 0.75 -7.765625 C 0.75 -7.878906 0.75 -7.972656 0.75 -8.046875 C 0.757812 -8.117188 0.769531 -8.175781 0.78125 -8.21875 L 0.78125 -8.75 L 0.75 -8.8125 L 0.75 -8.9375 L 0.734375 -8.984375 L 0.734375 -9.34375 C 0.835938 -9.300781 0.984375 -9.28125 1.171875 -9.28125 C 1.179688 -9.269531 1.28125 -9.265625 1.46875 -9.265625 C 1.46875 -9.253906 1.53125 -9.25 1.65625 -9.25 L 1.6875 -9.25 L 1.65625 -11.3125 L 1.65625 -11.296875 C 1.644531 -11.335938 1.632812 -11.375 1.625 -11.40625 C 1.613281 -11.445312 1.601562 -11.476562 1.59375 -11.5 C 1.59375 -11.53125 1.582031 -11.566406 1.5625 -11.609375 L 1.53125 -11.640625 L 1.53125 -11.859375 C 1.601562 -11.828125 1.675781 -11.8125 1.75 -11.8125 L 1.953125 -11.8125 C 3.097656 -11.8125 4.207031 -12.457031 5.28125 -13.75 C 5.300781 -13.726562 5.320312 -13.707031 5.34375 -13.6875 C 5.363281 -13.664062 5.390625 -13.644531 5.421875 -13.625 C 5.453125 -13.582031 5.488281 -13.535156 5.53125 -13.484375 C 5.570312 -13.441406 5.625 -13.382812 5.6875 -13.3125 C 6.125 -12.851562 6.578125 -12.625 7.046875 -12.625 L 7 -12.625 L 7.046875 -12.640625 L 7.203125 -12.640625 Z M 7.296875 -12.53125 "/></g></g></g><g fill="#ffffff" fill-opacity="1"><g transform="translate(44.570648, 22.026102)"><g><path d="M 7.984375 -2.65625 C 8.066406 -2.25 8.222656 -1.992188 8.453125 -1.890625 C 6.960938 -1.671875 5.769531 -1.070312 4.875 -0.09375 C 4.082031 -0.914062 2.691406 -1.429688 0.703125 -1.640625 C 0.640625 -1.640625 0.609375 -1.660156 0.609375 -1.703125 C 0.609375 -1.773438 0.691406 -1.921875 0.859375 -2.140625 C 1.078125 -2.441406 1.25 -2.65625 1.375 -2.78125 L 1.375 -8.015625 C 1.15625 -8.285156 1.046875 -8.507812 1.046875 -8.6875 C 2.472656 -8.769531 3.632812 -9.1875 4.53125 -9.9375 C 6.125 -9.144531 7.40625 -8.707031 8.375 -8.625 C 8.113281 -8.320312 7.984375 -8.101562 7.984375 -7.96875 Z M 5.5625 -7.6875 C 4.4375 -8.15625 3.804688 -8.390625 3.671875 -8.390625 C 3.648438 -8.390625 3.640625 -8.378906 3.640625 -8.359375 L 3.640625 -2.921875 C 3.847656 -2.691406 4.488281 -2.460938 5.5625 -2.234375 Z M 5.5625 -7.6875 "/></g></g></g><g fill="#ffffff" fill-opacity="1"><g transform="translate(53.631995, 22.026102)"><g><path d="M 3.15625 -0.09375 C 2.457031 -0.707031 1.609375 -1.132812 0.609375 -1.375 C 0.929688 -1.894531 1.265625 -2.238281 1.609375 -2.40625 L 1.609375 -10.859375 L 1.484375 -11.5 C 1.484375 -11.519531 1.476562 -11.53125 1.46875 -11.53125 C 1.46875 -11.539062 1.46875 -11.550781 1.46875 -11.5625 L 1.46875 -11.53125 C 1.457031 -11.550781 1.453125 -11.601562 1.453125 -11.6875 L 1.40625 -11.75 L 1.390625 -11.765625 C 1.390625 -11.796875 1.378906 -11.832031 1.359375 -11.875 L 1.34375 -11.90625 L 1.34375 -12.171875 C 1.425781 -12.128906 1.488281 -12.109375 1.53125 -12.109375 C 1.550781 -12.109375 1.570312 -12.101562 1.59375 -12.09375 C 1.613281 -12.09375 1.628906 -12.09375 1.640625 -12.09375 C 2.117188 -12.09375 2.882812 -12.503906 3.9375 -13.328125 L 4.03125 -13.265625 C 4 -13.203125 3.972656 -13.132812 3.953125 -13.0625 C 3.929688 -13 3.910156 -12.929688 3.890625 -12.859375 C 3.847656 -12.703125 3.796875 -12.53125 3.734375 -12.34375 C 3.640625 -11.945312 3.59375 -11.648438 3.59375 -11.453125 L 3.59375 -2.625 C 3.675781 -2.582031 3.769531 -2.523438 3.875 -2.453125 C 3.988281 -2.378906 4.113281 -2.289062 4.25 -2.1875 L 4.25 -2.21875 L 4.296875 -2.1875 C 4.335938 -2.144531 4.367188 -2.113281 4.390625 -2.09375 C 4.410156 -2.070312 4.421875 -2.054688 4.421875 -2.046875 L 4.484375 -1.984375 L 4.796875 -2.28125 L 5.21875 -1.734375 Z M 3.15625 -0.09375 "/></g></g></g><g fill="#ffffff" fill-opacity="1"><g transform="translate(59.459775, 22.026102)"><g><path d="M 3.5625 -0.078125 C 3.445312 -0.0859375 3.335938 -0.0976562 3.234375 -0.109375 C 3.128906 -0.128906 3.019531 -0.160156 2.90625 -0.203125 C 2.789062 -0.242188 2.679688 -0.289062 2.578125 -0.34375 C 2.484375 -0.40625 2.382812 -0.476562 2.28125 -0.5625 C 1.863281 -0.894531 1.65625 -1.273438 1.65625 -1.703125 L 1.65625 -6.90625 C 1.457031 -6.925781 1.300781 -7.054688 1.1875 -7.296875 L 0.890625 -7.125 L 0.609375 -7.53125 L 0.671875 -7.640625 L 0.6875 -7.625 L 0.78125 -7.6875 C 0.84375 -7.75 0.910156 -7.8125 0.984375 -7.875 C 1.066406 -7.945312 1.148438 -8.023438 1.234375 -8.109375 C 1.316406 -8.191406 1.410156 -8.28125 1.515625 -8.375 C 1.628906 -8.46875 1.753906 -8.570312 1.890625 -8.6875 C 2.054688 -8.800781 2.242188 -8.957031 2.453125 -9.15625 L 2.53125 -9.21875 C 2.5625 -9.226562 2.582031 -9.242188 2.59375 -9.265625 C 2.613281 -9.296875 2.632812 -9.316406 2.65625 -9.328125 L 2.65625 -9.578125 C 3.21875 -8.785156 3.710938 -8.390625 4.140625 -8.390625 C 4.234375 -8.390625 4.457031 -8.484375 4.8125 -8.671875 L 4.8125 -8.421875 C 4.78125 -8.335938 4.765625 -8.242188 4.765625 -8.140625 C 4.660156 -7.828125 4.515625 -7.566406 4.328125 -7.359375 C 4.160156 -7.171875 3.976562 -7.03125 3.78125 -6.9375 L 3.78125 -2.53125 C 3.78125 -2.457031 3.8125 -2.347656 3.875 -2.203125 C 4 -1.941406 4.28125 -1.8125 4.71875 -1.8125 C 4.882812 -1.8125 5.066406 -1.851562 5.265625 -1.9375 L 5.34375 -1.78125 Z M 3.015625 -9.765625 L 2.84375 -9.765625 L 2.84375 -9.796875 L 2.625 -9.796875 L 2.59375 -9.8125 C 2.070312 -9.8125 1.75 -10.023438 1.625 -10.453125 L 1.296875 -10.28125 L 1.015625 -10.734375 C 1.078125 -10.796875 1.132812 -10.847656 1.1875 -10.890625 C 1.25 -10.929688 1.3125 -10.96875 1.375 -11 C 1.4375 -11.03125 1.492188 -11.054688 1.546875 -11.078125 C 1.609375 -11.109375 1.671875 -11.140625 1.734375 -11.171875 L 1.6875 -11.125 C 1.707031 -11.144531 1.726562 -11.164062 1.75 -11.1875 C 1.78125 -11.207031 1.816406 -11.234375 1.859375 -11.265625 C 1.898438 -11.296875 1.9375 -11.328125 1.96875 -11.359375 C 2 -11.390625 2.035156 -11.421875 2.078125 -11.453125 C 2.128906 -11.484375 2.179688 -11.519531 2.234375 -11.5625 C 2.296875 -11.601562 2.359375 -11.648438 2.421875 -11.703125 C 2.484375 -11.742188 2.550781 -11.789062 2.625 -11.84375 C 2.695312 -11.894531 2.769531 -11.945312 2.84375 -12 C 3.207031 -11.476562 3.578125 -11.21875 3.953125 -11.21875 C 3.992188 -11.226562 4.023438 -11.238281 4.046875 -11.25 C 4.078125 -11.257812 4.109375 -11.265625 4.140625 -11.265625 C 4.160156 -11.273438 4.179688 -11.28125 4.203125 -11.28125 C 4.234375 -11.289062 4.269531 -11.304688 4.3125 -11.328125 L 4.296875 -11.328125 L 4.328125 -11.359375 L 4.359375 -11.359375 L 4.375 -11.375 L 4.390625 -11.375 L 4.421875 -11.40625 L 4.5625 -11.40625 L 4.5625 -11.21875 C 4.5625 -11.039062 4.515625 -10.859375 4.421875 -10.671875 C 4.335938 -10.492188 4.222656 -10.34375 4.078125 -10.21875 C 3.941406 -10.082031 3.773438 -9.972656 3.578125 -9.890625 C 3.484375 -9.847656 3.390625 -9.816406 3.296875 -9.796875 C 3.203125 -9.773438 3.109375 -9.765625 3.015625 -9.765625 Z M 3.015625 -9.765625 "/></g></g></g><g fill="#ffffff" fill-opacity="1"><g transform="translate(65.422809, 22.026102)"><g><path d="M 7.984375 -2.65625 C 8.066406 -2.25 8.222656 -1.992188 8.453125 -1.890625 C 6.960938 -1.671875 5.769531 -1.070312 4.875 -0.09375 C 4.082031 -0.914062 2.691406 -1.429688 0.703125 -1.640625 C 0.640625 -1.640625 0.609375 -1.660156 0.609375 -1.703125 C 0.609375 -1.773438 0.691406 -1.921875 0.859375 -2.140625 C 1.078125 -2.441406 1.25 -2.65625 1.375 -2.78125 L 1.375 -8.015625 C 1.15625 -8.285156 1.046875 -8.507812 1.046875 -8.6875 C 2.472656 -8.769531 3.632812 -9.1875 4.53125 -9.9375 C 6.125 -9.144531 7.40625 -8.707031 8.375 -8.625 C 8.113281 -8.320312 7.984375 -8.101562 7.984375 -7.96875 Z M 5.5625 -7.6875 C 4.4375 -8.15625 3.804688 -8.390625 3.671875 -8.390625 C 3.648438 -8.390625 3.640625 -8.378906 3.640625 -8.359375 L 3.640625 -2.921875 C 3.847656 -2.691406 4.488281 -2.460938 5.5625 -2.234375 Z M 5.5625 -7.6875 "/></g></g></g></svg>