<svg xmlns="http://www.w3.org/2000/svg" xmlns:xlink="http://www.w3.org/1999/xlink" width="500" zoomAndPan="magnify" viewBox="0 0 375 374.999991" height="500" preserveAspectRatio="xMidYMid meet" version="1.0"><defs><clipPath id="fbe64e011a"><path d="M 18.085938 22.40625 L 364.109375 22.40625 L 364.109375 237.636719 L 18.085938 237.636719 Z M 18.085938 22.40625 " clip-rule="nonzero"/></clipPath><clipPath id="a94d959b8c"><path d="M 25.789062 203.875 C 34.992188 237.019531 27.902344 324.378906 119.851562 321.28125 C 186.09375 319.054688 171.960938 321.421875 273.09375 316.78125 C 315.777344 314.828125 342.726562 305.632812 353.03125 243.050781 C 364.117188 175.753906 373.816406 132.230469 345.941406 79.8125 C 324.988281 40.402344 282.449219 15.800781 220.421875 23.945312 C 56.921875 45.398438 -4.859375 93.550781 25.789062 203.875 Z M 25.789062 203.875 " clip-rule="nonzero"/></clipPath><clipPath id="8bf347d104"><path d="M 18.085938 237.472656 L 364.109375 237.472656 L 364.109375 321.460938 L 18.085938 321.460938 Z M 18.085938 237.472656 " clip-rule="nonzero"/></clipPath><clipPath id="95c32696a4"><path d="M 25.789062 203.875 C 34.992188 237.019531 27.902344 324.378906 119.851562 321.28125 C 186.09375 319.054688 171.960938 321.421875 273.09375 316.78125 C 315.777344 314.828125 342.726562 305.632812 353.03125 243.050781 C 364.117188 175.753906 373.816406 132.230469 345.941406 79.8125 C 324.988281 40.402344 282.449219 15.800781 220.421875 23.945312 C 56.921875 45.398438 -4.859375 93.550781 25.789062 203.875 Z M 25.789062 203.875 " clip-rule="nonzero"/></clipPath><clipPath id="477c8a0ebf"><path d="M 18.085938 22.40625 L 171.714844 22.40625 L 171.714844 218.203125 L 18.085938 218.203125 Z M 18.085938 22.40625 " clip-rule="nonzero"/></clipPath><clipPath id="e7192a8cbe"><path d="M 25.789062 203.875 C 34.992188 237.019531 27.902344 324.378906 119.851562 321.28125 C 186.09375 319.054688 171.960938 321.421875 273.09375 316.78125 C 315.777344 314.828125 342.726562 305.632812 353.03125 243.050781 C 364.117188 175.753906 373.816406 132.230469 345.941406 79.8125 C 324.988281 40.402344 282.449219 15.800781 220.421875 23.945312 C 56.921875 45.398438 -4.859375 93.550781 25.789062 203.875 Z M 25.789062 203.875 " clip-rule="nonzero"/></clipPath><clipPath id="0320cd7a1a"><path d="M 18.085938 247.679688 L 364.109375 247.679688 L 364.109375 321.460938 L 18.085938 321.460938 Z M 18.085938 247.679688 " clip-rule="nonzero"/></clipPath><clipPath id="1eaa52eaa2"><path d="M 25.789062 203.875 C 34.992188 237.019531 27.902344 324.378906 119.851562 321.28125 C 186.09375 319.054688 171.960938 321.421875 273.09375 316.78125 C 315.777344 314.828125 342.726562 305.632812 353.03125 243.050781 C 364.117188 175.753906 373.816406 132.230469 345.941406 79.8125 C 324.988281 40.402344 282.449219 15.800781 220.421875 23.945312 C 56.921875 45.398438 -4.859375 93.550781 25.789062 203.875 Z M 25.789062 203.875 " clip-rule="nonzero"/></clipPath><clipPath id="9129bea95f"><path d="M 80.558594 22.40625 L 188 22.40625 L 188 233 L 80.558594 233 Z M 80.558594 22.40625 " clip-rule="nonzero"/></clipPath><clipPath id="93275bccf3"><path d="M 25.789062 203.875 C 34.992188 237.019531 27.902344 324.378906 119.851562 321.28125 C 186.09375 319.054688 171.960938 321.421875 273.09375 316.78125 C 315.777344 314.828125 342.726562 305.632812 353.03125 243.050781 C 364.117188 175.753906 373.816406 132.230469 345.941406 79.8125 C 324.988281 40.402344 282.449219 15.800781 220.421875 23.945312 C 56.921875 45.398438 -4.859375 93.550781 25.789062 203.875 Z M 25.789062 203.875 " clip-rule="nonzero"/></clipPath><clipPath id="64372b8e8a"><path d="M 226.769531 37.375 L 297.648438 37.375 L 297.648438 65.371094 L 226.769531 65.371094 Z M 226.769531 37.375 " clip-rule="nonzero"/></clipPath><clipPath id="add1cca95b"><path d="M 25.789062 203.875 C 34.992188 237.019531 27.902344 324.378906 119.851562 321.28125 C 186.09375 319.054688 171.960938 321.421875 273.09375 316.78125 C 315.777344 314.828125 342.726562 305.632812 353.03125 243.050781 C 364.117188 175.753906 373.816406 132.230469 345.941406 79.8125 C 324.988281 40.402344 282.449219 15.800781 220.421875 23.945312 C 56.921875 45.398438 -4.859375 93.550781 25.789062 203.875 Z M 25.789062 203.875 " clip-rule="nonzero"/></clipPath><clipPath id="7d39d0f7d8"><path d="M 226.601562 37.210938 L 297.8125 37.210938 L 297.8125 65.539062 L 226.601562 65.539062 Z M 226.601562 37.210938 " clip-rule="nonzero"/></clipPath><clipPath id="217e811dd1"><path d="M 25.789062 203.875 C 34.992188 237.019531 27.902344 324.378906 119.851562 321.28125 C 186.09375 319.054688 171.960938 321.421875 273.09375 316.78125 C 315.777344 314.828125 342.726562 305.632812 353.03125 243.050781 C 364.117188 175.753906 373.816406 132.230469 345.941406 79.8125 C 324.988281 40.402344 282.449219 15.800781 220.421875 23.945312 C 56.921875 45.398438 -4.859375 93.550781 25.789062 203.875 Z M 25.789062 203.875 " clip-rule="nonzero"/></clipPath><clipPath id="a80eedaf09"><path d="M 261.714844 22.40625 L 262.867188 22.40625 L 262.867188 44.128906 L 261.714844 44.128906 Z M 261.714844 22.40625 " clip-rule="nonzero"/></clipPath><clipPath id="f3d775c166"><path d="M 25.789062 203.875 C 34.992188 237.019531 27.902344 324.378906 119.851562 321.28125 C 186.09375 319.054688 171.960938 321.421875 273.09375 316.78125 C 315.777344 314.828125 342.726562 305.632812 353.03125 243.050781 C 364.117188 175.753906 373.816406 132.230469 345.941406 79.8125 C 324.988281 40.402344 282.449219 15.800781 220.421875 23.945312 C 56.921875 45.398438 -4.859375 93.550781 25.789062 203.875 Z M 25.789062 203.875 " clip-rule="nonzero"/></clipPath><clipPath id="d541b08134"><path d="M 336.878906 200.085938 L 361.4375 200.085938 L 361.4375 352.398438 L 336.878906 352.398438 Z M 336.878906 200.085938 " clip-rule="nonzero"/></clipPath><clipPath id="079c6083d9"><path d="M 209.625 349.457031 L 227.59375 349.457031 L 227.59375 352.398438 L 209.625 352.398438 Z M 209.625 349.457031 " clip-rule="nonzero"/></clipPath><clipPath id="56c371185e"><path d="M 205.667969 349.789062 L 211.273438 349.789062 L 211.273438 352.398438 L 205.667969 352.398438 Z M 205.667969 349.789062 " clip-rule="nonzero"/></clipPath><clipPath id="7ac6f24a9d"><path d="M 198.417969 347.152344 L 214.898438 347.152344 L 214.898438 352.398438 L 198.417969 352.398438 Z M 198.417969 347.152344 " clip-rule="nonzero"/></clipPath><clipPath id="1c6af7053a"><path d="M 211.109375 350.445312 L 220.339844 350.445312 L 220.339844 352.398438 L 211.109375 352.398438 Z M 211.109375 350.445312 " clip-rule="nonzero"/></clipPath><clipPath id="8299aee9be"><path d="M 161.164062 349.292969 L 179.128906 349.292969 L 179.128906 352.398438 L 161.164062 352.398438 Z M 161.164062 349.292969 " clip-rule="nonzero"/></clipPath><clipPath id="0ec77f317c"><path d="M 157 349 L 163 349 L 163 352.40625 L 157 352.40625 Z M 157 349 " clip-rule="nonzero"/></clipPath><clipPath id="166f5bcde9"><path d="M 150 347 L 167 347 L 167 352.40625 L 150 352.40625 Z M 150 347 " clip-rule="nonzero"/></clipPath><clipPath id="d61625ba9b"><path d="M 162.648438 350.28125 L 171.878906 350.28125 L 171.878906 352.398438 L 162.648438 352.398438 Z M 162.648438 350.28125 " clip-rule="nonzero"/></clipPath><clipPath id="a7d8da152b"><path d="M 184 267 L 207 267 L 207 352.40625 L 184 352.40625 Z M 184 267 " clip-rule="nonzero"/></clipPath></defs><g clip-path="url(#fbe64e011a)"><g clip-path="url(#a94d959b8c)"><path fill="#fcd8bd" d="M -0.742188 -16.707031 L 366.90625 -16.707031 L 366.90625 237.5 L -0.742188 237.5 L -0.742188 -16.707031 " fill-opacity="1" fill-rule="nonzero"/></g></g><g clip-path="url(#8bf347d104)"><g clip-path="url(#95c32696a4)"><path fill="#f9ae77" d="M -0.742188 237.5 L 366.90625 237.5 L 366.90625 341.972656 L -0.742188 341.972656 L -0.742188 237.5 " fill-opacity="1" fill-rule="nonzero"/></g></g><g clip-path="url(#477c8a0ebf)"><g clip-path="url(#e7192a8cbe)"><path fill="#7a9ed9" d="M -1.425781 -20.21875 L 171.585938 -20.21875 L 171.585938 218.179688 L -1.425781 218.179688 L -1.425781 -20.21875 " fill-opacity="1" fill-rule="nonzero"/></g></g><g clip-path="url(#0320cd7a1a)"><g clip-path="url(#1eaa52eaa2)"><path fill="#f79451" d="M 194.890625 247.757812 C 303.378906 247.757812 391.328125 265.492188 391.328125 287.375 C 391.328125 309.253906 303.378906 326.992188 194.890625 326.992188 C 86.398438 326.992188 -1.550781 309.253906 -1.550781 287.375 C -1.550781 265.492188 86.398438 247.757812 194.890625 247.757812 " fill-opacity="1" fill-rule="nonzero"/></g></g><g clip-path="url(#9129bea95f)"><g clip-path="url(#93275bccf3)"><path fill="#d8ccea" d="M 80.625 -54.960938 C 88.246094 -6.777344 85.25 42.625 93.097656 90.78125 C 100.949219 138.925781 137.648438 208.703125 180.054688 232.898438 C 184.511719 131.476562 174.160156 17.304688 187.90625 -83.277344 C 150.140625 -78.546875 116.714844 -80.996094 80.625 -54.960938 " fill-opacity="1" fill-rule="nonzero"/></g></g><g clip-path="url(#64372b8e8a)"><g clip-path="url(#add1cca95b)"><path fill="#f4f4f4" d="M 226.832031 65.214844 C 226.832031 49.925781 242.675781 37.527344 262.21875 37.527344 C 281.765625 37.527344 297.605469 49.925781 297.605469 65.214844 L 226.832031 65.214844 " fill-opacity="1" fill-rule="nonzero"/></g></g><g clip-path="url(#7d39d0f7d8)"><g clip-path="url(#217e811dd1)"><path fill="#f4f4f4" d="M 227.015625 65.035156 L 297.421875 65.035156 C 297.296875 49.949219 281.554688 37.707031 262.21875 37.707031 C 242.882812 37.707031 227.140625 49.949219 227.015625 65.035156 Z M 297.785156 65.394531 L 226.652344 65.394531 L 226.652344 65.214844 C 226.652344 49.847656 242.609375 37.347656 262.21875 37.347656 C 281.828125 37.347656 297.785156 49.847656 297.785156 65.214844 L 297.785156 65.394531 " fill-opacity="1" fill-rule="nonzero"/></g></g><g clip-path="url(#a80eedaf09)"><g clip-path="url(#f3d775c166)"><path fill="#f4f4f4" d="M 262.703125 44.035156 L 261.714844 44.035156 L 261.714844 15.136719 L 262.703125 15.136719 L 262.703125 44.035156 " fill-opacity="1" fill-rule="nonzero"/></g></g><path fill="#97ab4c" d="M 57.015625 192.53125 L 55.335938 201.507812 L 51.320312 201.507812 L 51.347656 195.082031 C 51.265625 192.6875 50.652344 167.125 62.761719 162.464844 L 57.015625 192.53125 " fill-opacity="1" fill-rule="nonzero"/><path fill="#afcc5b" d="M 49.074219 197.648438 C 48.59375 197.648438 48.585938 196.90625 49.074219 196.90625 C 49.554688 196.90625 49.554688 197.648438 49.074219 197.648438 Z M 54.527344 201.507812 L 56.6875 150.433594 C 42.164062 159.777344 43.667969 187.167969 43.667969 187.167969 L 43.707031 187.175781 C 43.707031 187.195312 43.707031 187.214844 43.707031 187.230469 C 43.941406 192.371094 45.210938 197.414062 46.609375 201.519531 L 54.527344 201.507812 " fill-opacity="1" fill-rule="nonzero"/><path fill="#97ab4c" d="M 49.074219 197.648438 C 48.59375 197.648438 48.585938 196.90625 49.074219 196.90625 C 49.554688 196.90625 49.554688 197.648438 49.074219 197.648438 Z M 52.0625 201.507812 L 49.027344 180.769531 L 49.019531 180.769531 L 44.195312 146.976562 C 33.921875 156.976562 43.433594 183.371094 44.347656 185.832031 L 49.496094 201.5 L 52.0625 201.507812 " fill-opacity="1" fill-rule="nonzero"/><path fill="#afcc5b" d="M 44.871094 201.507812 C 42.71875 199.207031 40.433594 196.3125 38.761719 193.046875 C 38.75 193.035156 38.75 193.019531 38.742188 193.007812 L 38.714844 193.019531 C 38.714844 193.019531 29.039062 174.582031 36.148438 163.113281 L 51.667969 201.5 L 44.871094 201.507812 " fill-opacity="1" fill-rule="nonzero"/><path fill="#fcd8bd" d="M 43.359375 215.050781 L 51.5 215.050781 C 53.511719 215.050781 55.316406 213.871094 56.097656 212.046875 L 61.585938 199.261719 L 34.710938 199.261719 L 38.59375 211.585938 C 39.230469 213.644531 41.167969 215.050781 43.359375 215.050781 " fill-opacity="1" fill-rule="nonzero"/><path fill="#f4f4f4" d="M 159.511719 345.984375 L 11 345.984375 L 11 214.59375 L 159.511719 214.59375 L 159.511719 345.984375 " fill-opacity="1" fill-rule="nonzero"/><path fill="#ababdd" d="M 159.78125 345.390625 L 158.933594 345.386719 L 159.636719 214.597656 L 160.484375 214.605469 L 159.78125 345.390625 " fill-opacity="1" fill-rule="nonzero"/><path fill="#ababdd" d="M 76.589844 351.523438 L 75.726562 351.523438 L 76.355469 214.628906 L 77.21875 214.632812 L 76.589844 351.523438 " fill-opacity="1" fill-rule="nonzero"/><path fill="#ababdd" d="M 100.175781 258.625 L 34.980469 258.578125 L 34.980469 257.730469 L 100.175781 257.777344 L 100.175781 258.625 " fill-opacity="1" fill-rule="nonzero"/><path fill="#ababdd" d="M 58.503906 253.421875 L 69.191406 253.421875 C 70.574219 253.421875 71.703125 252.292969 71.703125 250.914062 C 71.703125 249.53125 70.574219 248.40625 69.191406 248.40625 L 58.503906 248.40625 C 57.121094 248.40625 55.992188 249.53125 55.992188 250.914062 C 56.003906 252.292969 57.128906 253.421875 58.503906 253.421875 " fill-opacity="1" fill-rule="nonzero"/><path fill="#f4f4f4" d="M 72.425781 251.203125 L 55.210938 251.203125 L 55.210938 250.582031 L 72.425781 250.582031 L 72.425781 251.203125 " fill-opacity="1" fill-rule="nonzero"/><path fill="#ababdd" d="M 57.929688 267.539062 L 68.617188 267.539062 C 70 267.539062 71.128906 266.410156 71.128906 265.03125 C 71.128906 263.648438 70 262.519531 68.617188 262.519531 L 57.929688 262.519531 C 56.546875 262.519531 55.417969 263.648438 55.417969 265.03125 C 55.429688 266.410156 56.558594 267.539062 57.929688 267.539062 " fill-opacity="1" fill-rule="nonzero"/><path fill="#f4f4f4" d="M 71.851562 265.320312 L 54.640625 265.320312 L 54.640625 264.699219 L 71.851562 264.699219 L 71.851562 265.320312 " fill-opacity="1" fill-rule="nonzero"/><path fill="#93a7ac" d="M 297.273438 321.886719 L 259.972656 321.886719 L 259.972656 321.464844 L 297.273438 321.464844 L 297.273438 321.886719 " fill-opacity="1" fill-rule="nonzero"/><path fill="#605668" d="M 104.351562 351.753906 C 104.328125 351.753906 104.304688 351.753906 104.285156 351.75 C 104.019531 351.714844 103.832031 351.46875 103.871094 351.203125 L 124.683594 200.4375 C 124.71875 200.171875 124.960938 199.980469 125.230469 200.023438 C 125.496094 200.058594 125.683594 200.304688 125.644531 200.570312 L 104.832031 351.335938 C 104.800781 351.578125 104.589844 351.753906 104.351562 351.753906 " fill-opacity="1" fill-rule="nonzero"/><path fill="#f8a49e" d="M 162.578125 346.855469 L 152.839844 344.675781 L 153.066406 338.289062 C 157.050781 336.140625 161.3125 335.464844 165.578125 335.480469 L 162.578125 346.855469 " fill-opacity="1" fill-rule="nonzero"/><path fill="#f68082" d="M 166.480469 332.027344 L 165.570312 335.492188 C 161.300781 335.472656 157.035156 336.148438 153.054688 338.300781 L 153.320312 330.757812 L 166.480469 332.027344 " fill-opacity="1" fill-rule="nonzero"/><path fill="#f4f4f4" d="M 327.742188 262.53125 L 304.363281 262.53125 L 304.363281 254.714844 L 323.089844 254.714844 C 325.65625 254.714844 327.742188 256.800781 327.742188 259.367188 L 327.742188 262.53125 " fill-opacity="1" fill-rule="nonzero"/><path fill="#5e5e8b" d="M 320.816406 351.730469 L 241.714844 351.730469 C 238.464844 351.730469 236.027344 348.445312 236.667969 344.921875 L 251.625 262.5 L 320.816406 262.5 L 320.816406 351.730469 " fill-opacity="1" fill-rule="nonzero"/><path fill="#86869e" d="M 329.828125 262.5 L 286.171875 262.5 L 271.121094 345.410156 C 270.53125 348.679688 272.796875 351.730469 275.8125 351.730469 L 335.03125 351.730469 L 335.03125 268.25 C 335.027344 265.066406 332.707031 262.5 329.828125 262.5 " fill-opacity="1" fill-rule="nonzero"/><g clip-path="url(#d541b08134)"><path fill="#2e3135" d="M 360.882812 352.28125 C 360.671875 352.28125 360.488281 352.132812 360.453125 351.917969 L 336.886719 200.722656 C 336.851562 200.484375 337.011719 200.265625 337.246094 200.226562 C 337.484375 200.195312 337.703125 200.351562 337.742188 200.585938 L 361.308594 351.785156 C 361.34375 352.019531 361.183594 352.242188 360.949219 352.277344 C 360.925781 352.28125 360.902344 352.28125 360.882812 352.28125 " fill-opacity="1" fill-rule="nonzero"/></g><path fill="#86869e" d="M 260.773438 167.769531 L 277.34375 167.769531 L 277.34375 193.457031 L 260.773438 193.457031 L 260.773438 167.769531 " fill-opacity="1" fill-rule="nonzero"/><path fill="#432a4a" d="M 212.101562 167.835938 C 211.339844 167.835938 210.617188 167.5 210.121094 166.914062 C 209.621094 166.324219 209.414062 165.554688 209.535156 164.792969 L 221.703125 92.472656 C 222.164062 89.710938 224.390625 87.925781 227.378906 87.925781 L 333.949219 87.992188 C 334.710938 87.992188 335.5 88.386719 336.0625 89.054688 C 336.570312 89.65625 336.796875 90.347656 336.691406 90.980469 L 324.300781 165.234375 C 324.019531 166.90625 322.808594 168.070312 321.359375 168.078125 L 212.101562 167.835938 " fill-opacity="1" fill-rule="nonzero"/><path fill="#86869e" d="M 227.378906 87.289062 C 224.089844 87.289062 221.589844 89.296875 221.070312 92.367188 L 208.90625 164.691406 C 208.578125 166.671875 210.089844 168.476562 212.101562 168.476562 L 321.359375 168.71875 C 323.230469 168.71875 324.621094 167.199219 324.933594 165.347656 L 337.324219 91.09375 C 337.625 89.304688 335.867188 87.363281 333.949219 87.363281 L 227.378906 87.289062 C 227.390625 87.289062 227.390625 87.289062 227.378906 87.289062 Z M 227.390625 88.554688 L 333.949219 88.621094 C 334.511719 88.621094 335.140625 88.941406 335.585938 89.457031 C 335.960938 89.90625 336.148438 90.433594 336.070312 90.863281 L 323.683594 165.113281 C 323.492188 166.21875 322.695312 167.421875 321.367188 167.421875 L 212.113281 167.179688 C 211.539062 167.179688 210.992188 166.925781 210.617188 166.484375 C 210.242188 166.042969 210.082031 165.449219 210.175781 164.875 L 222.339844 92.554688 C 222.746094 90.132812 224.730469 88.554688 227.390625 88.554688 " fill-opacity="1" fill-rule="nonzero"/><path fill="#f4f4f4" d="M 319.339844 101.925781 L 230.132812 101.917969 L 230.132812 101.492188 L 319.339844 101.5 L 319.339844 101.925781 " fill-opacity="1" fill-rule="nonzero"/><path fill="#d8ccea" d="M 305.59375 114.65625 L 299.34375 114.65625 C 298.976562 114.65625 298.648438 114.882812 298.601562 115.164062 C 298.554688 115.445312 298.808594 115.671875 299.175781 115.671875 L 305.425781 115.671875 L 305.59375 114.65625 " fill-opacity="1" fill-rule="nonzero"/><path fill="#d8ccea" d="M 308.359375 114.65625 L 308.191406 115.660156 L 312.074219 115.660156 L 312.230469 114.65625 L 308.359375 114.65625 " fill-opacity="1" fill-rule="nonzero"/><path fill="#d8ccea" d="M 269.082031 114.65625 L 262.933594 114.65625 C 262.566406 114.65625 262.238281 114.882812 262.191406 115.164062 C 262.144531 115.445312 262.398438 115.671875 262.765625 115.671875 L 268.910156 115.671875 L 269.082031 114.65625 " fill-opacity="1" fill-rule="nonzero"/><path fill="#d8ccea" d="M 292.273438 114.65625 L 281.191406 114.65625 L 281.019531 115.671875 L 292.105469 115.671875 C 292.472656 115.671875 292.800781 115.445312 292.847656 115.164062 C 292.894531 114.882812 292.632812 114.65625 292.273438 114.65625 " fill-opacity="1" fill-rule="nonzero"/><path fill="#d8ccea" d="M 254.679688 115.660156 L 233.667969 115.660156 C 233.300781 115.660156 233.046875 115.4375 233.097656 115.15625 C 233.144531 114.871094 233.472656 114.648438 233.839844 114.648438 L 254.847656 114.648438 C 255.214844 114.648438 255.46875 114.871094 255.421875 115.15625 C 255.367188 115.4375 255.039062 115.660156 254.679688 115.660156 " fill-opacity="1" fill-rule="nonzero"/><path fill="#f4f4f4" d="M 311.601562 118.507812 L 273.761719 118.507812 C 273.398438 118.507812 273.066406 118.734375 273.019531 119.015625 C 272.972656 119.296875 273.226562 119.523438 273.59375 119.523438 L 311.433594 119.523438 L 311.601562 118.507812 " fill-opacity="1" fill-rule="nonzero"/><path fill="#f4f1fa" d="M 238.519531 118.507812 L 233.199219 118.507812 C 232.832031 118.507812 232.503906 118.734375 232.457031 119.015625 C 232.410156 119.296875 232.664062 119.523438 233.03125 119.523438 L 238.351562 119.523438 L 238.519531 118.507812 " fill-opacity="1" fill-rule="nonzero"/><path fill="#f4f1fa" d="M 254.226562 118.507812 L 241.285156 118.507812 L 241.113281 119.511719 L 254.070312 119.511719 L 254.226562 118.507812 " fill-opacity="1" fill-rule="nonzero"/><path fill="#f4f1fa" d="M 266.175781 118.507812 L 258.683594 118.507812 L 258.515625 119.523438 L 266.007812 119.523438 C 266.375 119.523438 266.703125 119.296875 266.75 119.015625 C 266.796875 118.734375 266.542969 118.507812 266.175781 118.507812 " fill-opacity="1" fill-rule="nonzero"/><path fill="#d8ccea" d="M 267.859375 122.132812 L 237.832031 122.132812 L 237.671875 123.148438 L 267.691406 123.148438 L 267.859375 122.132812 " fill-opacity="1" fill-rule="nonzero"/><path fill="#f57e41" d="M 281.605469 122.132812 L 279.960938 122.132812 L 279.789062 123.148438 L 281.433594 123.148438 C 281.800781 123.148438 282.128906 122.921875 282.175781 122.640625 C 282.222656 122.359375 281.960938 122.132812 281.605469 122.132812 " fill-opacity="1" fill-rule="nonzero"/><path fill="#d8ccea" d="M 306.84375 107.058594 L 300.59375 107.058594 C 300.226562 107.058594 299.898438 107.285156 299.851562 107.566406 C 299.804688 107.847656 300.058594 108.074219 300.425781 108.074219 L 306.675781 108.074219 L 306.84375 107.058594 " fill-opacity="1" fill-rule="nonzero"/><path fill="#d8ccea" d="M 309.609375 107.058594 L 309.441406 108.074219 L 313.3125 108.074219 L 313.480469 107.058594 L 309.609375 107.058594 " fill-opacity="1" fill-rule="nonzero"/><path fill="#d8ccea" d="M 270.332031 107.058594 L 264.183594 107.058594 C 263.816406 107.058594 263.488281 107.285156 263.441406 107.566406 C 263.394531 107.847656 263.648438 108.074219 264.015625 108.074219 L 270.164062 108.074219 L 270.332031 107.058594 " fill-opacity="1" fill-rule="nonzero"/><path fill="#d8ccea" d="M 293.515625 107.058594 L 282.433594 107.058594 L 282.261719 108.074219 L 293.34375 108.074219 C 293.710938 108.074219 294.042969 107.847656 294.089844 107.566406 C 294.136719 107.285156 293.878906 107.058594 293.515625 107.058594 " fill-opacity="1" fill-rule="nonzero"/><path fill="#f4f4f4" d="M 255.921875 108.074219 L 234.910156 108.074219 C 234.542969 108.074219 234.289062 107.847656 234.335938 107.566406 C 234.382812 107.285156 234.710938 107.058594 235.078125 107.058594 L 256.089844 107.058594 C 256.457031 107.058594 256.710938 107.285156 256.664062 107.566406 C 256.617188 107.835938 256.285156 108.074219 255.921875 108.074219 " fill-opacity="1" fill-rule="nonzero"/><path fill="#f4f1fa" d="M 290.929688 110.910156 L 275.015625 110.910156 C 274.648438 110.910156 274.316406 111.136719 274.269531 111.417969 C 274.222656 111.699219 274.476562 111.921875 274.84375 111.921875 L 290.761719 111.921875 L 290.929688 110.910156 " fill-opacity="1" fill-rule="nonzero"/><path fill="#f4f1fa" d="M 293.476562 110.910156 L 293.308594 111.921875 L 312.683594 111.921875 L 312.851562 110.910156 L 293.476562 110.910156 " fill-opacity="1" fill-rule="nonzero"/><path fill="#f57e41" d="M 267.429688 110.910156 L 239.675781 110.910156 L 239.507812 111.921875 L 267.257812 111.921875 C 267.625 111.921875 267.953125 111.699219 268 111.417969 C 268.046875 111.132812 267.792969 110.910156 267.429688 110.910156 " fill-opacity="1" fill-rule="nonzero"/><path fill="#f57e41" d="M 301.984375 96.460938 C 301.636719 96.460938 301.269531 96.5625 300.9375 96.773438 C 300.535156 97.027344 300.242188 97.398438 300.113281 97.820312 C 299.988281 98.230469 300.035156 98.640625 300.242188 98.972656 C 300.683594 99.664062 301.707031 99.804688 302.527344 99.285156 C 303.347656 98.769531 303.660156 97.78125 303.222656 97.089844 C 302.960938 96.675781 302.492188 96.460938 301.984375 96.460938 Z M 301.480469 100.023438 C 300.832031 100.023438 300.226562 99.738281 299.882812 99.199219 C 299.609375 98.761719 299.546875 98.226562 299.707031 97.699219 C 299.863281 97.179688 300.21875 96.722656 300.710938 96.414062 C 301.726562 95.769531 303.015625 95.96875 303.578125 96.859375 C 304.144531 97.75 303.773438 99 302.753906 99.644531 C 302.351562 99.898438 301.90625 100.023438 301.480469 100.023438 " fill-opacity="1" fill-rule="nonzero"/><path fill="#d8ccea" d="M 307.660156 96.457031 C 307.304688 96.457031 306.9375 96.566406 306.613281 96.769531 C 305.792969 97.289062 305.480469 98.277344 305.921875 98.96875 C 306.359375 99.664062 307.382812 99.800781 308.207031 99.285156 C 308.609375 99.03125 308.902344 98.65625 309.03125 98.238281 C 309.15625 97.824219 309.109375 97.417969 308.898438 97.085938 C 308.691406 96.753906 308.339844 96.539062 307.917969 96.476562 C 307.832031 96.464844 307.746094 96.457031 307.660156 96.457031 Z M 307.160156 100.023438 C 306.507812 100.023438 305.902344 99.734375 305.5625 99.195312 C 305 98.304688 305.367188 97.058594 306.386719 96.414062 C 306.875 96.105469 307.4375 95.976562 307.976562 96.058594 C 308.527344 96.136719 308.980469 96.421875 309.257812 96.859375 C 309.535156 97.296875 309.597656 97.828125 309.4375 98.359375 C 309.277344 98.878906 308.921875 99.335938 308.433594 99.644531 C 308.03125 99.898438 307.585938 100.023438 307.160156 100.023438 " fill-opacity="1" fill-rule="nonzero"/><path fill="#f4f4f4" d="M 313.460938 96.460938 C 313.105469 96.460938 312.738281 96.566406 312.414062 96.773438 C 312.011719 97.027344 311.71875 97.398438 311.589844 97.820312 C 311.46875 98.234375 311.511719 98.640625 311.722656 98.972656 C 312.160156 99.664062 313.1875 99.804688 314.007812 99.285156 C 314.828125 98.769531 315.136719 97.78125 314.699219 97.089844 C 314.492188 96.757812 314.140625 96.542969 313.714844 96.480469 C 313.632812 96.464844 313.546875 96.460938 313.460938 96.460938 Z M 312.960938 100.023438 C 312.308594 100.023438 311.703125 99.738281 311.363281 99.199219 C 311.085938 98.761719 311.023438 98.226562 311.183594 97.699219 C 311.34375 97.179688 311.699219 96.722656 312.1875 96.414062 C 312.675781 96.105469 313.242188 95.980469 313.777344 96.058594 C 314.328125 96.140625 314.78125 96.425781 315.058594 96.863281 C 315.621094 97.753906 315.253906 99 314.234375 99.644531 C 313.832031 99.902344 313.386719 100.023438 312.960938 100.023438 " fill-opacity="1" fill-rule="nonzero"/><path fill="#86869e" d="M 266.160156 188.539062 C 290.425781 188.539062 310.097656 190.761719 310.097656 193.507812 C 310.097656 196.25 290.425781 198.476562 266.160156 198.476562 C 241.890625 198.476562 222.21875 196.25 222.21875 193.507812 C 222.21875 190.761719 241.890625 188.539062 266.160156 188.539062 " fill-opacity="1" fill-rule="nonzero"/><path fill="#2e3135" d="M 253.695312 351.796875 C 253.679688 351.796875 253.667969 351.796875 253.65625 351.792969 C 253.417969 351.773438 253.242188 351.5625 253.261719 351.324219 L 266.660156 200.125 C 266.679688 199.890625 266.890625 199.710938 267.125 199.738281 C 267.367188 199.757812 267.539062 199.964844 267.519531 200.203125 L 254.121094 351.402344 C 254.101562 351.625 253.914062 351.796875 253.695312 351.796875 " fill-opacity="1" fill-rule="nonzero"/><path fill="#595c6e" d="M 234.421875 194.125 L 269.503906 185.851562 C 271.996094 185.457031 274.347656 186.933594 274.542969 189.015625 L 274.984375 193.507812 L 234.421875 194.125 " fill-opacity="1" fill-rule="nonzero"/><path fill="#908fa3" d="M 201.601562 184.589844 L 182.980469 191.328125 C 181.765625 191.769531 182.085938 193.550781 183.375 193.550781 L 240.417969 193.570312 L 270.164062 185.71875 L 224.859375 185.296875 L 201.601562 184.589844 " fill-opacity="1" fill-rule="nonzero"/><path fill="#a9c5ea" d="M 148.179688 329.78125 C 149.605469 286.210938 157.890625 253.703125 157.890625 253.703125 L 128.867188 254.019531 C 102.914062 249.390625 108.160156 216.734375 108.160156 216.734375 C 108.160156 216.734375 140.742188 213.464844 183.308594 217.871094 C 193.914062 218.96875 191.835938 234.71875 189.925781 246.386719 C 186.597656 266.777344 168.710938 334.863281 168.710938 334.863281 L 153.1875 334.984375 C 150.351562 334.964844 148.082031 332.617188 148.179688 329.78125 " fill-opacity="1" fill-rule="nonzero"/><path fill="#7a232b" d="M 320.699219 201.066406 L 93.105469 201.066406 L 93.105469 193.570312 L 320.699219 193.570312 L 320.699219 201.066406 " fill-opacity="1" fill-rule="nonzero"/><path fill="#f25126" d="M 166.773438 194.304688 C 170.664062 176.65625 171.59375 157.296875 163.378906 140.8125 C 159.214844 132.453125 151.742188 126.914062 142.480469 125.410156 C 133.511719 123.953125 121.074219 124.414062 108.441406 132.800781 C 101.277344 137.554688 98.070312 146.964844 101.351562 153.523438 C 103.5625 157.9375 105.855469 163.84375 107.105469 171.011719 C 122.699219 186.265625 144.792969 192.191406 166.773438 194.304688 " fill-opacity="1" fill-rule="nonzero"/><path fill="#f25126" d="M 160.933594 222.78125 C 150.941406 227.808594 107.734375 224.820312 107.734375 224.820312 C 104.566406 224.625 102.867188 212.816406 103.0625 209.191406 C 103.203125 206.53125 110.554688 190.820312 107.105469 171 C 122.710938 186.265625 144.792969 192.183594 166.773438 194.292969 C 166.285156 196.523438 166.105469 199.714844 166.011719 201.535156 C 165.316406 214.910156 168.859375 218.789062 160.933594 222.78125 " fill-opacity="1" fill-rule="nonzero"/><path fill="#f25126" d="M 182.085938 164.089844 L 160.351562 135.949219 L 147.96875 172.804688 L 162.671875 186.132812 C 174.105469 178.214844 181.203125 176.082031 182.085938 164.089844 " fill-opacity="1" fill-rule="nonzero"/><path fill="#f25126" d="M 215.28125 183.746094 C 215.207031 182.09375 213.945312 179.519531 210.289062 178.9375 C 206.527344 178.339844 204.535156 179.003906 195.945312 175.378906 C 193.988281 174.550781 191.109375 172.917969 189.617188 171.59375 C 184.539062 167.101562 177.648438 159.277344 177.648438 159.277344 C 176.125 170.316406 172.300781 177.4375 164.882812 184.800781 L 168.117188 187.90625 C 172.027344 191.449219 176.691406 193.597656 182.207031 193.617188 L 213.363281 193.449219 C 215.574219 193.449219 216.0625 191.222656 216.136719 189.230469 L 215.28125 183.746094 " fill-opacity="1" fill-rule="nonzero"/><path fill="#f8a49e" d="M 211.765625 347.308594 L 201.734375 347.832031 L 200.078125 337.800781 C 203.472656 334.089844 208.429688 334.308594 212.140625 334.023438 L 211.765625 347.308594 " fill-opacity="1" fill-rule="nonzero"/><path fill="#f68082" d="M 212.328125 330.691406 L 212.140625 334.023438 C 208.679688 334.421875 205.117188 334.074219 200.042969 337.941406 L 199.046875 331.707031 L 212.328125 330.691406 " fill-opacity="1" fill-rule="nonzero"/><path fill="#a9c5ea" d="M 201.632812 218.957031 L 173.558594 217.269531 L 151.648438 250.929688 L 189.550781 253.917969 L 217.507812 227.777344 C 213.644531 223.167969 207.234375 219.082031 201.632812 218.957031 " fill-opacity="1" fill-rule="nonzero"/><path fill="#a9c5ea" d="M 221.597656 241.058594 C 221.503906 234.175781 219.453125 229.214844 215.957031 225.984375 L 188.054688 254.425781 L 188.140625 254.425781 C 189.625 288.546875 190.144531 312.273438 193.675781 327.730469 C 194.382812 330.8125 195.886719 333.480469 199.222656 333.386719 L 214.539062 332.933594 L 221.597656 241.058594 " fill-opacity="1" fill-rule="nonzero"/><path fill="#f25126" d="M 145.1875 169.460938 C 145.1875 169.460938 158.058594 181.898438 166.800781 187.511719 C 169.914062 189.515625 171.679688 194.578125 191.363281 193.074219 L 145.1875 169.460938 " fill-opacity="1" fill-rule="nonzero"/><path fill="#c93e21" d="M 184.785156 193.558594 C 173.621094 193.558594 170.390625 190.777344 168.140625 188.839844 C 167.644531 188.410156 167.175781 188.003906 166.6875 187.691406 C 158.027344 182.128906 145.167969 169.738281 145.039062 169.613281 L 145.335938 169.308594 C 145.464844 169.433594 158.289062 181.796875 166.914062 187.335938 C 167.429688 187.664062 167.910156 188.078125 168.417969 188.515625 C 171.007812 190.746094 174.917969 194.113281 191.347656 192.863281 L 191.382812 193.285156 C 188.917969 193.472656 186.730469 193.558594 184.785156 193.558594 " fill-opacity="1" fill-rule="nonzero"/><path fill="#7599d6" d="M 190.066406 293.042969 C 189.957031 293.042969 189.863281 292.957031 189.855469 292.839844 L 187.835938 258.082031 C 187.730469 256.320312 186.265625 254.925781 184.5 254.910156 L 166.65625 254.738281 C 166.539062 254.738281 166.445312 254.644531 166.449219 254.527344 C 166.449219 254.410156 166.542969 254.316406 166.660156 254.316406 L 184.503906 254.484375 C 186.492188 254.503906 188.140625 256.070312 188.257812 258.054688 L 190.28125 292.816406 C 190.285156 292.933594 190.199219 293.035156 190.082031 293.042969 C 190.074219 293.042969 190.074219 293.042969 190.066406 293.042969 " fill-opacity="1" fill-rule="nonzero"/><path fill="#815785" d="M 215.890625 340.339844 C 215.148438 339.59375 214.066406 339.390625 213.042969 339.332031 C 212.09375 339.285156 210.976562 339.425781 210.449219 340.300781 C 210.042969 340.976562 210.148438 341.886719 210.535156 342.554688 C 210.917969 343.222656 211.519531 343.691406 212.132812 344.113281 C 213.371094 344.976562 214.679688 345.71875 216.03125 346.347656 L 221.082031 346.367188 C 220.976562 345.664062 220.367188 345.269531 219.613281 344.65625 C 218.667969 343.867188 217.613281 342.976562 216.9375 341.90625 C 216.605469 341.371094 216.324219 340.777344 215.890625 340.339844 " fill-opacity="1" fill-rule="nonzero"/><path fill="#9f6fa2" d="M 226.730469 349.523438 L 215.308594 341.90625 C 214.78125 341.558594 214.171875 341.359375 213.53125 341.351562 L 204.460938 341.25 C 205.558594 344.855469 208.050781 348.207031 209.734375 351.429688 L 226.261719 351.625 C 227.246094 351.644531 227.605469 350.039062 226.730469 349.523438 " fill-opacity="1" fill-rule="nonzero"/><g clip-path="url(#079c6083d9)"><path fill="#5e3d64" d="M 225.667969 352.398438 L 210.296875 352.277344 C 209.941406 352.277344 209.660156 351.957031 209.679688 351.570312 L 209.722656 350.179688 C 209.734375 349.792969 210.035156 349.484375 210.390625 349.484375 L 226.871094 349.617188 C 227.226562 349.617188 227.511719 349.933594 227.492188 350.320312 L 227.484375 350.507812 C 227.457031 351.5625 226.636719 352.40625 225.667969 352.398438 " fill-opacity="1" fill-rule="nonzero"/></g><g clip-path="url(#56c371185e)"><path fill="#5e3d64" d="M 206.460938 349.890625 L 211.199219 351.765625 L 209.734375 352.265625 L 205.777344 350.714844 L 206.460938 349.890625 " fill-opacity="1" fill-rule="nonzero"/></g><path fill="#5e3d64" d="M 220.394531 345.386719 C 220.375 345.386719 220.359375 345.382812 220.335938 345.378906 C 218.910156 344.980469 218.191406 345.296875 218.183594 345.300781 C 218.074219 345.347656 217.949219 345.304688 217.898438 345.199219 C 217.851562 345.09375 217.894531 344.96875 218 344.917969 C 218.035156 344.902344 218.851562 344.523438 220.453125 344.96875 C 220.566406 345 220.632812 345.117188 220.601562 345.230469 C 220.574219 345.324219 220.488281 345.386719 220.394531 345.386719 " fill-opacity="1" fill-rule="nonzero"/><path fill="#5e3d64" d="M 217.339844 344.363281 C 217.25 344.363281 217.167969 344.304688 217.136719 344.214844 C 217.101562 344.105469 217.164062 343.984375 217.273438 343.949219 C 217.3125 343.9375 218.246094 343.644531 219.210938 343.867188 C 219.328125 343.894531 219.398438 344.011719 219.371094 344.125 C 219.34375 344.238281 219.230469 344.308594 219.113281 344.28125 C 218.261719 344.082031 217.414062 344.351562 217.40625 344.351562 C 217.382812 344.359375 217.359375 344.363281 217.339844 344.363281 " fill-opacity="1" fill-rule="nonzero"/><path fill="#5e3d64" d="M 216.230469 343.488281 C 216.144531 343.488281 216.058594 343.433594 216.03125 343.347656 C 215.992188 343.238281 216.046875 343.117188 216.160156 343.078125 C 216.203125 343.0625 217.214844 342.710938 218.183594 343.019531 C 218.296875 343.054688 218.359375 343.171875 218.324219 343.285156 C 218.285156 343.398438 218.167969 343.457031 218.054688 343.425781 C 217.222656 343.160156 216.3125 343.472656 216.300781 343.476562 C 216.277344 343.484375 216.253906 343.488281 216.230469 343.488281 " fill-opacity="1" fill-rule="nonzero"/><path fill="#5e3d64" d="M 215.242188 342.503906 C 215.15625 342.503906 215.078125 342.449219 215.046875 342.363281 C 215.003906 342.257812 215.058594 342.132812 215.167969 342.089844 C 215.222656 342.070312 216.507812 341.597656 217.390625 341.953125 C 217.5 341.996094 217.550781 342.121094 217.507812 342.230469 C 217.464844 342.335938 217.339844 342.390625 217.230469 342.347656 C 216.503906 342.054688 215.332031 342.484375 215.320312 342.492188 C 215.292969 342.5 215.269531 342.503906 215.242188 342.503906 " fill-opacity="1" fill-rule="nonzero"/><path fill="#8d5d97" d="M 201.105469 341.191406 C 200.34375 341.191406 199.664062 341.820312 199.457031 342.722656 L 198.78125 345.699219 C 198.03125 348.414062 199.347656 351.261719 201.378906 351.289062 L 209.988281 351.402344 C 208.925781 348.96875 208.003906 346.460938 207.222656 343.824219 C 206.765625 342.261719 205.464844 341.21875 204.007812 341.210938 L 201.105469 341.191406 " fill-opacity="1" fill-rule="nonzero"/><g clip-path="url(#7ac6f24a9d)"><path fill="#5e3d64" d="M 198.546875 349.917969 L 198.574219 347.289062 L 206.378906 347.308594 C 208.15625 347.308594 208.484375 347.324219 214.773438 352.332031 L 200.003906 352.171875 C 199.179688 352.171875 198.539062 351.167969 198.546875 349.917969 " fill-opacity="1" fill-rule="nonzero"/></g><g clip-path="url(#1c6af7053a)"><path fill="#9f6fa2" d="M 211.246094 352.320312 L 220.261719 352.359375 C 220.253906 352.351562 214.761719 348.226562 211.246094 352.320312 " fill-opacity="1" fill-rule="nonzero"/></g><path fill="#815785" d="M 167.449219 340.242188 C 166.707031 339.5 165.625 339.296875 164.601562 339.238281 C 163.652344 339.191406 162.53125 339.332031 162.007812 340.207031 C 161.601562 340.882812 161.707031 341.792969 162.089844 342.460938 C 162.476562 343.128906 163.078125 343.597656 163.691406 344.019531 C 164.921875 344.886719 166.226562 345.625 167.589844 346.246094 L 172.640625 346.273438 C 172.535156 345.570312 171.925781 345.175781 171.171875 344.566406 C 170.222656 343.777344 169.171875 342.882812 168.492188 341.8125 C 168.171875 341.277344 167.890625 340.683594 167.449219 340.242188 " fill-opacity="1" fill-rule="nonzero"/><path fill="#9f6fa2" d="M 178.296875 349.429688 L 166.875 341.8125 C 166.351562 341.464844 165.738281 341.265625 165.097656 341.257812 L 156.027344 341.152344 C 157.128906 344.757812 159.617188 348.113281 161.300781 351.335938 L 177.828125 351.53125 C 178.8125 351.554688 179.171875 349.945312 178.296875 349.429688 " fill-opacity="1" fill-rule="nonzero"/><g clip-path="url(#8299aee9be)"><path fill="#5e3d64" d="M 177.226562 352.304688 L 161.855469 352.183594 C 161.5 352.183594 161.214844 351.863281 161.234375 351.476562 L 161.28125 350.085938 C 161.292969 349.703125 161.59375 349.390625 161.949219 349.390625 L 178.429688 349.523438 C 178.785156 349.523438 179.070312 349.839844 179.050781 350.226562 L 179.039062 350.414062 C 179.011719 351.46875 178.195312 352.3125 177.226562 352.304688 " fill-opacity="1" fill-rule="nonzero"/></g><g clip-path="url(#0ec77f317c)"><path fill="#5e3d64" d="M 158.03125 349.796875 L 162.769531 351.675781 L 161.292969 352.171875 L 157.34375 350.621094 L 158.03125 349.796875 " fill-opacity="1" fill-rule="nonzero"/></g><path fill="#5e3d64" d="M 171.960938 345.304688 C 171.941406 345.304688 171.921875 345.300781 171.90625 345.292969 C 170.476562 344.894531 169.757812 345.210938 169.75 345.214844 C 169.640625 345.265625 169.519531 345.21875 169.46875 345.113281 C 169.417969 345.007812 169.460938 344.882812 169.566406 344.832031 C 169.601562 344.816406 170.417969 344.4375 172.019531 344.886719 C 172.132812 344.917969 172.199219 345.035156 172.167969 345.148438 C 172.140625 345.242188 172.054688 345.304688 171.960938 345.304688 " fill-opacity="1" fill-rule="nonzero"/><path fill="#5e3d64" d="M 168.898438 344.269531 C 168.808594 344.269531 168.722656 344.210938 168.695312 344.121094 C 168.660156 344.011719 168.71875 343.890625 168.832031 343.855469 C 168.871094 343.84375 169.800781 343.550781 170.769531 343.773438 C 170.882812 343.800781 170.953125 343.917969 170.929688 344.03125 C 170.902344 344.144531 170.789062 344.210938 170.671875 344.1875 C 169.820312 343.988281 168.96875 344.253906 168.960938 344.257812 C 168.941406 344.265625 168.917969 344.269531 168.898438 344.269531 " fill-opacity="1" fill-rule="nonzero"/><path fill="#5e3d64" d="M 167.796875 343.402344 C 167.710938 343.402344 167.628906 343.351562 167.597656 343.261719 C 167.558594 343.152344 167.617188 343.03125 167.726562 342.992188 C 167.769531 342.976562 168.78125 342.625 169.75 342.933594 C 169.863281 342.96875 169.925781 343.089844 169.890625 343.203125 C 169.851562 343.3125 169.734375 343.375 169.621094 343.339844 C 168.792969 343.074219 167.878906 343.390625 167.867188 343.390625 C 167.84375 343.402344 167.820312 343.402344 167.796875 343.402344 " fill-opacity="1" fill-rule="nonzero"/><path fill="#5e3d64" d="M 166.800781 342.410156 C 166.714844 342.410156 166.632812 342.355469 166.601562 342.273438 C 166.5625 342.164062 166.617188 342.039062 166.726562 342 C 166.78125 341.976562 168.0625 341.503906 168.945312 341.851562 C 169.054688 341.890625 169.109375 342.015625 169.066406 342.125 C 169.023438 342.234375 168.898438 342.289062 168.792969 342.246094 C 168.058594 341.960938 166.886719 342.390625 166.875 342.398438 C 166.851562 342.402344 166.824219 342.410156 166.800781 342.410156 " fill-opacity="1" fill-rule="nonzero"/><path fill="#8d5d97" d="M 152.660156 341.097656 C 151.898438 341.089844 151.222656 341.726562 151.015625 342.628906 L 150.339844 345.605469 C 149.589844 348.320312 150.902344 351.167969 152.933594 351.195312 L 161.546875 351.308594 C 160.484375 348.875 159.5625 346.367188 158.78125 343.726562 C 158.320312 342.167969 157.023438 341.125 155.566406 341.117188 L 152.660156 341.097656 " fill-opacity="1" fill-rule="nonzero"/><g clip-path="url(#166f5bcde9)"><path fill="#5e3d64" d="M 150.113281 349.824219 L 150.140625 347.195312 L 157.945312 347.210938 C 159.722656 347.222656 160.050781 347.238281 166.339844 352.238281 L 151.570312 352.078125 C 150.742188 352.078125 150.09375 351.070312 150.113281 349.824219 " fill-opacity="1" fill-rule="nonzero"/></g><g clip-path="url(#d61625ba9b)"><path fill="#9f6fa2" d="M 162.804688 352.226562 L 171.820312 352.265625 C 171.820312 352.265625 166.332031 348.132812 162.804688 352.226562 " fill-opacity="1" fill-rule="nonzero"/></g><path fill="#f79342" d="M 159.65625 135.421875 C 159.59375 135.421875 159.535156 135.394531 159.492188 135.339844 C 148.898438 122.285156 135.890625 127.074219 135.761719 127.121094 C 135.648438 127.164062 135.527344 127.109375 135.484375 127 C 135.445312 126.890625 135.5 126.765625 135.609375 126.726562 C 135.742188 126.675781 149.039062 121.777344 159.820312 135.074219 C 159.894531 135.164062 159.882812 135.300781 159.789062 135.375 C 159.75 135.402344 159.703125 135.421875 159.65625 135.421875 " fill-opacity="1" fill-rule="nonzero"/><path fill="#a33b3f" d="M 341.984375 201.058594 L 261.992188 201.058594 C 261.992188 196.859375 265.40625 193.449219 269.609375 193.449219 L 334.371094 193.449219 C 338.574219 193.441406 341.984375 196.851562 341.984375 201.058594 " fill-opacity="1" fill-rule="nonzero"/><path fill="#2e3135" d="M 339.070312 210.433594 L 266.402344 210.433594 C 266.167969 210.433594 265.976562 210.242188 265.976562 210.007812 C 265.976562 209.773438 266.167969 209.585938 266.402344 209.585938 L 339.070312 209.585938 C 339.304688 209.585938 339.496094 209.773438 339.496094 210.007812 C 339.496094 210.242188 339.304688 210.433594 339.070312 210.433594 " fill-opacity="1" fill-rule="nonzero"/><path fill="#5e5e8b" d="M 334.59375 351.667969 L 312.0625 338.339844 L 312.0625 293.109375 L 286.003906 262.648438 L 286.34375 262.359375 L 312.511719 292.945312 L 312.511719 338.089844 L 334.824219 351.285156 L 334.59375 351.667969 " fill-opacity="1" fill-rule="nonzero"/><path fill="#c3d3ef" d="M 308.085938 262.558594 L 275.566406 262.558594 L 287.609375 254.707031 L 320.136719 254.707031 L 308.085938 262.558594 " fill-opacity="1" fill-rule="nonzero"/><path fill="#f4f4f4" d="M 318.945312 257.070312 L 289.632812 257.070312 L 289.632812 256.644531 L 318.945312 256.644531 L 318.945312 257.070312 " fill-opacity="1" fill-rule="nonzero"/><path fill="#f4f4f4" d="M 288.761719 256.699219 C 288.40625 257.023438 288.320312 257.515625 288.570312 257.792969 C 288.824219 258.070312 289.320312 258.035156 289.679688 257.707031 C 290.035156 257.382812 290.125 256.890625 289.871094 256.613281 C 289.621094 256.335938 289.125 256.375 288.761719 256.699219 Z M 289.023438 258.402344 C 288.730469 258.402344 288.453125 258.292969 288.253906 258.078125 C 287.847656 257.628906 287.945312 256.867188 288.476562 256.386719 C 289.011719 255.902344 289.777344 255.878906 290.1875 256.328125 C 290.59375 256.777344 290.496094 257.539062 289.964844 258.023438 C 289.6875 258.273438 289.34375 258.402344 289.023438 258.402344 " fill-opacity="1" fill-rule="nonzero"/><path fill="#f57e41" d="M 300.355469 260.402344 C 300.761719 260.039062 301.328125 260.007812 301.617188 260.332031 C 301.910156 260.65625 301.816406 261.214844 301.410156 261.578125 C 301.003906 261.941406 300.4375 261.972656 300.148438 261.648438 C 299.855469 261.324219 299.949219 260.765625 300.355469 260.402344 " fill-opacity="1" fill-rule="nonzero"/><path fill="#f4f4f4" d="M 302.796875 260.398438 C 303.207031 260.035156 303.769531 260.003906 304.0625 260.328125 C 304.351562 260.652344 304.257812 261.210938 303.851562 261.574219 C 303.445312 261.9375 302.882812 261.96875 302.589844 261.644531 C 302.300781 261.320312 302.394531 260.765625 302.796875 260.398438 " fill-opacity="1" fill-rule="nonzero"/><path fill="#7599d6" d="M 209.21875 333.128906 C 209.097656 333.128906 209.003906 333.035156 209.003906 332.917969 L 209.003906 301.941406 C 209.003906 301.824219 209.097656 301.726562 209.21875 301.726562 C 209.335938 301.726562 209.429688 301.824219 209.429688 301.941406 L 209.429688 332.917969 C 209.429688 333.035156 209.335938 333.128906 209.21875 333.128906 " fill-opacity="1" fill-rule="nonzero"/><path fill="#7599d6" d="M 163.417969 334.707031 C 163.40625 334.707031 163.398438 334.707031 163.386719 334.707031 C 163.269531 334.6875 163.191406 334.582031 163.207031 334.464844 L 166.730469 309.652344 C 166.746094 309.535156 166.855469 309.453125 166.972656 309.46875 C 167.085938 309.488281 167.167969 309.59375 167.152344 309.710938 L 163.625 334.527344 C 163.613281 334.632812 163.519531 334.707031 163.417969 334.707031 " fill-opacity="1" fill-rule="nonzero"/><path fill="#f89b2a" d="M 243.585938 167.179688 L 255.707031 167.226562 C 255.707031 167.226562 255.328125 169.816406 255.328125 180.664062 L 242.066406 180.664062 C 242.054688 180.675781 241.03125 174.515625 243.585938 167.179688 " fill-opacity="1" fill-rule="nonzero"/><path fill="#6595d5" d="M 289.5 167.609375 L 298.308594 167.648438 C 298.308594 167.648438 298.035156 169.527344 298.035156 177.425781 L 288.390625 177.425781 C 288.382812 177.417969 287.640625 172.9375 289.5 167.609375 " fill-opacity="1" fill-rule="nonzero"/><path fill="#f4f4f4" d="M 277.769531 269.941406 C 276.140625 269.941406 274.507812 271.3125 274.136719 273.003906 L 271.191406 286.164062 C 271.011719 286.984375 271.160156 287.773438 271.609375 288.332031 C 272.023438 288.847656 272.652344 289.128906 273.378906 289.128906 C 275 289.128906 276.628906 287.757812 277.011719 286.066406 L 279.953125 272.910156 C 280.136719 272.089844 279.984375 271.300781 279.535156 270.738281 C 279.121094 270.222656 278.492188 269.941406 277.769531 269.941406 Z M 273.378906 289.5625 C 272.515625 289.5625 271.769531 289.21875 271.273438 288.601562 C 270.742188 287.941406 270.558594 287.015625 270.769531 286.070312 L 273.714844 272.910156 C 274.128906 271.035156 275.949219 269.507812 277.769531 269.507812 C 278.628906 269.507812 279.375 269.851562 279.871094 270.46875 C 280.402344 271.132812 280.585938 272.054688 280.378906 273.003906 L 277.433594 286.164062 C 277.011719 288.035156 275.191406 289.5625 273.378906 289.5625 " fill-opacity="1" fill-rule="nonzero"/><path fill="#f8a49e" d="M 147.191406 123.425781 L 145.582031 131.902344 L 143.636719 132.597656 L 133.398438 127.902344 L 133.972656 124.40625 C 138.261719 123.691406 142.800781 122.824219 147.191406 123.425781 " fill-opacity="1" fill-rule="nonzero"/><path fill="#f8a49e" d="M 134.941406 118.480469 C 137.535156 113.101562 143.644531 117.945312 148.207031 118.265625 L 147.144531 123.777344 C 142.753906 123.164062 138.257812 123.683594 133.964844 124.40625 L 134.433594 121.550781 L 134.941406 118.480469 " fill-opacity="1" fill-rule="nonzero"/><path fill="#f68082" d="M 149.871094 109.460938 L 148.207031 118.273438 C 143.644531 117.953125 139.226562 117.484375 134.941406 118.488281 L 136.972656 106.15625 C 139.339844 110.675781 144.898438 107.949219 149.871094 109.460938 " fill-opacity="1" fill-rule="nonzero"/><path fill="#f4f4f4" d="M 146.449219 102.625 C 146.421875 102.671875 146.429688 102.644531 146.449219 102.617188 L 146.449219 102.625 " fill-opacity="1" fill-rule="nonzero"/><path fill="#f8a49e" d="M 159.777344 81.992188 C 157.203125 81.792969 155.125 87.289062 150.601562 87.25 C 146.890625 87.210938 142.78125 88.921875 141.539062 89.710938 C 139.085938 91.269531 137.226562 103.996094 137.039062 104.589844 C 137.039062 104.589844 142.078125 103.667969 142.996094 107.746094 C 144.613281 114.871094 146.042969 115.699219 147.8125 116.894531 C 148.480469 117.34375 149.277344 117.363281 150.085938 117.363281 C 152.707031 117.371094 159.074219 113.042969 160.652344 107.285156 C 160.660156 107.257812 160.671875 107.21875 160.671875 107.191406 L 163.820312 92.164062 C 163.886719 91.84375 163.941406 91.515625 163.953125 91.1875 C 164.292969 84.875 160.277344 82.046875 159.777344 81.992188 " fill-opacity="1" fill-rule="nonzero"/><path fill="#7a232b" d="M 151.703125 82.007812 C 149.898438 81.53125 148.015625 81.292969 146.070312 81.136719 C 147.519531 81.050781 149.003906 81.097656 150.394531 81.511719 C 150.839844 81.640625 151.269531 81.8125 151.703125 82.007812 " fill-opacity="1" fill-rule="nonzero"/><path fill="#7a232b" d="M 157.851562 91.609375 C 157.539062 92.003906 157.257812 92.417969 157.003906 92.859375 C 156.320312 94.011719 155.839844 95.289062 155.566406 96.597656 C 155.179688 98.492188 155.257812 100.484375 154.738281 102.355469 C 153.640625 106.375 149.90625 111.988281 145.855469 113.652344 C 144.464844 114.226562 142.285156 113.613281 139.972656 113.203125 C 137.367188 112.722656 136.03125 110.835938 134.894531 108.644531 C 123.191406 100.191406 128.285156 83.089844 129.667969 79.953125 C 130.5625 77.914062 132.308594 75.78125 134.332031 74.167969 C 135.683594 78.046875 141.597656 78.257812 145.207031 78.34375 C 146.089844 78.398438 149.191406 78.332031 150.054688 78.40625 C 152 78.566406 156.417969 80.542969 158.222656 81.019531 C 161.015625 82.300781 160.34375 83.800781 162.246094 85.867188 C 163.871094 87.605469 158.988281 90.160156 157.851562 91.609375 " fill-opacity="1" fill-rule="nonzero"/><path fill="#7a232b" d="M 163.210938 86.996094 C 162.476562 89.296875 159.769531 90.21875 157.945312 91.824219 C 157.589844 92.144531 157.269531 92.492188 156.996094 92.847656 C 157.25 92.414062 157.53125 91.992188 157.84375 91.597656 C 158.980469 90.140625 160.671875 89.671875 159.054688 87.914062 C 157.15625 85.851562 154.484375 83.277344 151.695312 82 C 154.316406 82.695312 156.769531 83.933594 158.980469 86.242188 C 160.117188 87.519531 161.695312 87.617188 163.210938 86.996094 " fill-opacity="1" fill-rule="nonzero"/><path fill="#963537" d="M 159.140625 78.476562 C 156.554688 76.25 156.179688 70.765625 145.648438 71 C 137.527344 71.179688 135.984375 72.832031 134.339844 74.15625 C 135.683594 78.035156 139.839844 80.863281 143.449219 80.949219 C 149.242188 81.351562 154.597656 81.652344 158.988281 86.253906 C 160.117188 87.523438 161.695312 87.617188 163.210938 86.996094 L 163.210938 86.988281 C 163.5 83.257812 163.03125 81.828125 159.140625 78.476562 " fill-opacity="1" fill-rule="nonzero"/><path fill="#f8a49e" d="M 156.113281 103.265625 C 158.078125 106.101562 155.886719 108.570312 153.828125 108.109375 C 151.757812 107.648438 150.113281 104.691406 150.152344 101.5 C 150.1875 98.304688 152.484375 96.058594 155.40625 96.53125 C 157.496094 96.859375 154.296875 100.632812 156.113281 103.265625 " fill-opacity="1" fill-rule="nonzero"/><path fill="#f68082" d="M 155.574219 107.195312 C 155.566406 107.195312 155.554688 107.195312 155.546875 107.191406 C 155.472656 107.175781 155.425781 107.101562 155.445312 107.027344 C 155.53125 106.648438 155.609375 106.242188 155.582031 105.839844 C 155.554688 105.4375 155.402344 105.082031 155.175781 104.886719 C 154.964844 104.714844 154.644531 104.660156 154.234375 104.722656 C 154.113281 104.742188 153.992188 104.75 153.867188 104.761719 C 153.621094 104.78125 153.382812 104.796875 153.167969 104.894531 C 153.113281 104.914062 153.054688 104.902344 153.011719 104.859375 C 152.992188 104.835938 150.964844 102.609375 152.285156 99.78125 C 152.316406 99.710938 152.398438 99.683594 152.464844 99.710938 C 152.535156 99.746094 152.5625 99.824219 152.53125 99.894531 C 151.414062 102.289062 152.839844 104.222656 153.152344 104.605469 C 153.382812 104.523438 153.617188 104.507812 153.847656 104.488281 C 153.964844 104.480469 154.078125 104.472656 154.191406 104.453125 C 154.683594 104.378906 155.074219 104.453125 155.351562 104.679688 C 155.636719 104.925781 155.820312 105.339844 155.851562 105.820312 C 155.882812 106.261719 155.800781 106.691406 155.707031 107.089844 C 155.695312 107.152344 155.636719 107.195312 155.574219 107.195312 " fill-opacity="1" fill-rule="nonzero"/><path fill="#7a232b" d="M 135.824219 72.71875 C 132.007812 70.691406 125.257812 70.71875 121.730469 72.804688 C 118.707031 74.589844 116.996094 78.054688 113.890625 79.71875 C 113.320312 80.035156 112.6875 80.273438 112.050781 80.476562 C 111.195312 81.078125 111.183594 81.0625 112.03125 80.457031 C 108.648438 81.539062 104.632812 81.523438 102.535156 84.246094 C 102 84.9375 101.644531 85.8125 101.71875 86.707031 C 101.792969 87.625 102.308594 88.5 102.308594 89.421875 C 102.300781 91.929688 98.585938 93.226562 98.90625 95.722656 C 99.078125 97.046875 100.410156 98.203125 100.175781 99.496094 C 100.089844 99.949219 99.839844 100.335938 99.679688 100.757812 C 99.191406 102.109375 99.875 103.714844 100.964844 104.757812 C 102.058594 105.796875 103.484375 106.390625 104.878906 106.964844 C 104.558594 108.054688 105.179688 109.304688 106.128906 110.007812 C 107.078125 110.710938 108.28125 110.964844 109.429688 110.996094 C 109.671875 111.003906 109.90625 110.996094 110.152344 110.996094 C 110.046875 110.910156 110.058594 110.925781 110.179688 111.011719 C 114.457031 110.929688 118.347656 108.410156 120.832031 105.046875 C 123.445312 101.5 124.703125 97.109375 125.558594 92.734375 C 126.265625 89.128906 127.136719 84.910156 130.53125 83.484375 C 131.554688 83.050781 132.695312 82.949219 133.765625 82.628906 C 137.835938 81.417969 140.617188 75.273438 135.824219 72.71875 " fill-opacity="1" fill-rule="nonzero"/><path fill="#7599d6" d="M 153.742188 228.667969 C 153.628906 228.667969 153.535156 228.574219 153.53125 228.460938 C 153.527344 228.34375 153.621094 228.246094 153.738281 228.242188 C 153.8125 228.238281 161.371094 227.964844 164.667969 223.742188 C 166.125 221.882812 166.550781 219.511719 165.933594 216.695312 C 165.910156 216.578125 165.984375 216.46875 166.097656 216.441406 C 166.214844 216.417969 166.324219 216.488281 166.351562 216.601562 C 166.992188 219.550781 166.539062 222.042969 165.003906 224.007812 C 161.578125 228.386719 154.066406 228.660156 153.75 228.667969 C 153.746094 228.667969 153.746094 228.667969 153.742188 228.667969 " fill-opacity="1" fill-rule="nonzero"/><path fill="#432a4a" d="M 244.546875 193.601562 C 244.308594 188.414062 238.339844 184.265625 230.996094 184.265625 C 223.664062 184.265625 217.695312 188.414062 217.453125 193.601562 L 244.546875 193.601562 " fill-opacity="1" fill-rule="nonzero"/><path fill="#f8a49e" d="M 214.5 193.421875 C 214.5 193.421875 217.941406 194.144531 221.335938 192.332031 C 222.800781 191.542969 227.484375 189.75 227.484375 189.75 L 234.570312 180.628906 C 233.179688 178.535156 230.464844 177.539062 227.914062 178.203125 L 221.214844 179.941406 C 219.410156 180.410156 217.546875 180.609375 215.695312 180.523438 L 213.585938 180.367188 C 217.191406 185.851562 214.5 193.421875 214.5 193.421875 " fill-opacity="1" fill-rule="nonzero"/><path fill="#f8a49e" d="M 231.148438 185.550781 L 233.507812 181.832031 L 234.457031 182.214844 L 244.441406 187.785156 C 244.988281 188.085938 245.082031 188.78125 244.640625 189.195312 L 244.1875 189.628906 C 243.519531 190.257812 242.175781 190.519531 241.320312 190.136719 L 231.148438 185.550781 " fill-opacity="1" fill-rule="nonzero"/><path fill="#f8a49e" d="M 231.421875 185.222656 L 238.71875 190.714844 C 239.046875 190.960938 239.074219 191.421875 238.785156 191.699219 C 238.117188 192.351562 236.941406 192.546875 236.101562 192.097656 L 229.203125 188.273438 L 231.421875 185.222656 " fill-opacity="1" fill-rule="nonzero"/><path fill="#f8a49e" d="M 233.707031 182.742188 L 233.394531 183.285156 L 233.386719 183.285156 Z M 233.707031 182.742188 " fill-opacity="1" fill-rule="nonzero"/><path fill="#f8a49e" d="M 244.847656 183.671875 C 245.597656 184.027344 245.742188 184.96875 245.117188 185.496094 L 245.0625 185.542969 C 244.234375 186.246094 243.03125 186.445312 241.988281 186.039062 L 233.394531 183.285156 L 233.707031 182.742188 L 233.394531 183.285156 L 228.855469 191.253906 C 228.855469 191.253906 227.820312 190.539062 226.769531 189.703125 L 231.722656 178.449219 L 244.847656 183.671875 " fill-opacity="1" fill-rule="nonzero"/><path fill="#f8a49e" d="M 229.335938 188.179688 L 233.332031 191.355469 C 233.847656 191.785156 233.667969 192.625 233.078125 192.953125 C 232.503906 193.269531 231.777344 193.242188 231.234375 192.875 L 226.355469 189.570312 L 226.609375 188.941406 L 229.335938 188.179688 " fill-opacity="1" fill-rule="nonzero"/><path fill="#f25126" d="M 149.746094 128.546875 C 146.738281 123.582031 142.753906 119.222656 138.070312 115.785156 C 135.589844 113.960938 132.789062 112.355469 129.714844 112.121094 C 124.382812 111.71875 119.289062 115.953125 118.152344 121.171875 C 117.015625 126.386719 119.550781 132.042969 123.867188 135.195312 C 128.183594 138.34375 133.972656 139.113281 139.164062 137.835938 L 149.746094 128.546875 " fill-opacity="1" fill-rule="nonzero"/><path fill="#f4c338" d="M 108.523438 217.851562 L 154.578125 217.851562 C 161.253906 217.851562 166.207031 207.472656 164.742188 196.558594 L 149.035156 141.265625 C 147.960938 133.292969 143.742188 127.617188 138.871094 127.617188 L 108.457031 127.617188 C 103.683594 127.617188 99.507812 133.074219 98.351562 140.851562 L 98.410156 196.144531 C 96.785156 207.171875 101.746094 217.851562 108.523438 217.851562 " fill-opacity="1" fill-rule="nonzero"/><path fill="#f8a03a" d="M 101.925781 217.851562 L 147.980469 217.851562 C 154.65625 217.851562 159.609375 207.472656 158.144531 196.558594 L 142.433594 141.265625 C 141.363281 133.292969 137.140625 127.617188 132.269531 127.617188 L 101.859375 127.617188 C 97.085938 127.617188 92.917969 133.074219 91.753906 140.851562 L 91.8125 196.144531 C 90.175781 207.171875 95.148438 217.851562 101.925781 217.851562 " fill-opacity="1" fill-rule="nonzero"/><path fill="#553f5d" d="M 120.59375 251.410156 L 130.464844 249.925781 L 118.714844 172.0625 C 118.300781 169.339844 115.765625 167.460938 113.039062 167.875 C 110.3125 168.289062 108.429688 170.824219 108.84375 173.546875 L 120.59375 251.410156 " fill-opacity="1" fill-rule="nonzero"/><path fill="#755e80" d="M 113.542969 174.917969 C 117.53125 174.234375 121.4375 177.5625 122.265625 182.359375 C 123.09375 187.152344 120.527344 191.597656 116.535156 192.285156 C 112.546875 192.96875 108.640625 189.640625 107.8125 184.847656 C 106.984375 180.050781 109.550781 175.605469 113.542969 174.917969 " fill-opacity="1" fill-rule="nonzero"/><path fill="#553f5d" d="M 114.710938 176.316406 C 114.449219 176.316406 114.183594 176.335938 113.921875 176.382812 C 110.847656 176.910156 108.882812 180.402344 109.53125 184.179688 C 110.121094 187.636719 112.699219 190.125 115.492188 190.125 C 115.753906 190.125 116.019531 190.105469 116.28125 190.058594 C 119.355469 189.535156 121.320312 186.039062 120.671875 182.261719 C 120.078125 178.816406 117.503906 176.316406 114.710938 176.316406 Z M 114.710938 176.808594 C 117.285156 176.808594 119.644531 179.191406 120.191406 182.347656 C 120.484375 184.066406 120.21875 185.765625 119.449219 187.148438 C 118.695312 188.492188 117.539062 189.355469 116.195312 189.589844 C 115.960938 189.628906 115.726562 189.65625 115.492188 189.65625 C 112.914062 189.65625 110.554688 187.269531 110.011719 184.105469 C 109.71875 182.386719 109.972656 180.683594 110.753906 179.304688 C 111.503906 177.960938 112.660156 177.097656 114.003906 176.863281 C 114.242188 176.824219 114.476562 176.808594 114.710938 176.808594 " fill-opacity="1" fill-rule="nonzero"/><path fill="#755e80" d="M 110.535156 254.441406 L 119.15625 241.199219 C 119.503906 240.675781 120.164062 240.347656 120.878906 240.347656 L 128.679688 240.347656 C 129.582031 240.347656 130.410156 240.796875 130.777344 241.503906 L 137.515625 254.445312 L 110.535156 254.445312 L 110.535156 254.441406 " fill-opacity="1" fill-rule="nonzero"/><path fill="#553f5d" d="M 110.707031 254.617188 L 110.367188 254.269531 L 118.910156 245.890625 C 119.445312 245.359375 120.226562 245.050781 121.054688 245.050781 L 127.917969 245.050781 C 128.804688 245.050781 129.628906 245.394531 130.175781 245.996094 L 137.6875 254.28125 L 137.328125 254.605469 L 129.816406 246.324219 C 129.359375 245.824219 128.667969 245.539062 127.917969 245.539062 L 121.054688 245.539062 C 120.355469 245.539062 119.699219 245.792969 119.253906 246.238281 L 110.707031 254.617188 " fill-opacity="1" fill-rule="nonzero"/><g clip-path="url(#a7d8da152b)"><path fill="#605668" d="M 205.730469 352.257812 C 205.488281 352.257812 205.269531 352.089844 205.210938 351.847656 L 184.921875 268.265625 C 184.851562 267.976562 185.027344 267.6875 185.316406 267.617188 C 185.601562 267.546875 185.894531 267.722656 185.964844 268.011719 L 206.25 351.59375 C 206.320312 351.882812 206.144531 352.171875 205.855469 352.242188 C 205.8125 352.25 205.773438 352.257812 205.730469 352.257812 " fill-opacity="1" fill-rule="nonzero"/></g><path fill="#605668" d="M 82.496094 351.75 C 82.449219 351.75 82.40625 351.742188 82.363281 351.730469 C 82.074219 351.660156 81.902344 351.367188 81.972656 351.082031 L 102.703125 269.875 C 102.777344 269.589844 103.074219 269.417969 103.355469 269.488281 C 103.640625 269.5625 103.816406 269.851562 103.742188 270.140625 L 83.011719 351.34375 C 82.953125 351.585938 82.734375 351.75 82.496094 351.75 " fill-opacity="1" fill-rule="nonzero"/><path fill="#605668" d="M 187.625 278.507812 L 101.210938 278.507812 C 100.914062 278.507812 100.675781 278.265625 100.675781 277.972656 C 100.675781 277.675781 100.914062 277.4375 101.210938 277.4375 L 187.625 277.4375 C 187.917969 277.4375 188.160156 277.675781 188.160156 277.972656 C 188.160156 278.265625 187.917969 278.507812 187.625 278.507812 " fill-opacity="1" fill-rule="nonzero"/><path fill="#f4c338" d="M 99.320312 266.851562 C 95.984375 266.851562 93.632812 264.425781 94.855469 262.171875 C 97.714844 256.914062 104.511719 253.183594 112.386719 253.183594 L 177.96875 253.183594 C 186.007812 253.183594 192.914062 257.0625 195.671875 262.492188 C 196.742188 264.605469 194.628906 266.839844 191.515625 266.839844 L 99.320312 266.839844 L 99.320312 266.851562 " fill-opacity="1" fill-rule="nonzero"/><path fill="#553f5d" d="M 188.929688 266.878906 C 186.796875 268.972656 183.316406 270.355469 179.371094 270.355469 L 108.402344 270.355469 C 104.453125 270.355469 100.976562 268.984375 98.84375 266.878906 L 188.929688 266.878906 " fill-opacity="1" fill-rule="nonzero"/><path fill="#f8a03a" d="M 97.234375 266.851562 C 94.753906 266.851562 93.011719 264.425781 93.925781 262.171875 C 96.050781 256.914062 101.089844 253.183594 106.925781 253.183594 L 155.546875 253.183594 C 161.507812 253.183594 166.632812 257.0625 168.671875 262.492188 C 169.460938 264.605469 167.890625 266.839844 165.589844 266.839844 L 97.234375 266.839844 L 97.234375 266.851562 " fill-opacity="1" fill-rule="nonzero"/><path fill="#f25126" d="M 212.253906 179.410156 C 214.90625 182.730469 215.703125 187.445312 214.3125 191.457031 C 214.085938 192.117188 213.824219 192.933594 214.304688 193.449219 C 220.152344 194.257812 220.695312 189.429688 220.273438 184.996094 C 220.214844 182.40625 218.730469 180.335938 216.304688 179.4375 C 215.402344 178.890625 212.902344 178.394531 212.253906 179.410156 " fill-opacity="1" fill-rule="nonzero"/><path fill="#cd3f21" d="M 214.410156 193.25 C 216.261719 193.492188 217.679688 193.15625 218.621094 192.253906 C 219.933594 190.992188 220.40625 188.625 220.0625 185.015625 C 220.007812 182.511719 218.574219 180.507812 216.230469 179.636719 C 215.332031 179.097656 213.195312 178.71875 212.523438 179.410156 C 215.125 182.769531 215.910156 187.507812 214.511719 191.527344 C 214.28125 192.203125 214.101562 192.84375 214.410156 193.25 Z M 215.515625 193.75 C 215.125 193.75 214.710938 193.71875 214.277344 193.660156 L 214.199219 193.648438 L 214.148438 193.59375 C 213.570312 192.96875 213.894531 192.019531 214.113281 191.390625 C 215.480469 187.449219 214.683594 182.796875 212.089844 179.539062 L 211.996094 179.421875 L 212.074219 179.292969 C 212.824219 178.121094 215.492188 178.699219 216.414062 179.257812 C 218.890625 180.171875 220.425781 182.320312 220.488281 184.992188 C 220.84375 188.726562 220.328125 191.207031 218.914062 192.558594 C 218.085938 193.351562 216.949219 193.75 215.515625 193.75 " fill-opacity="1" fill-rule="nonzero"/><path fill="#f25126" d="M 168.417969 144.140625 C 167.550781 143.292969 166.238281 143.117188 165.183594 143.699219 C 163.980469 144.375 162.824219 145.136719 161.867188 146.121094 C 160.445312 147.578125 159.515625 149.664062 159.9375 151.652344 C 160.230469 153.015625 161.105469 154.179688 161.949219 155.277344 C 164.101562 158.078125 166.253906 160.878906 168.410156 163.675781 C 168.859375 164.269531 169.339844 164.867188 169.996094 165.207031 C 171.738281 166.089844 173.75 164.777344 175.242188 163.527344 C 176.898438 162.148438 178.703125 160.472656 178.664062 158.324219 C 178.644531 156.800781 177.6875 155.46875 176.765625 154.257812 C 174.011719 150.582031 171.246094 146.917969 168.417969 144.140625 " fill-opacity="1" fill-rule="nonzero"/><path fill="#c93e21" d="M 166.496094 143.574219 C 166.082031 143.574219 165.664062 143.675781 165.285156 143.882812 C 163.839844 144.699219 162.832031 145.433594 162.019531 146.269531 C 160.496094 147.832031 159.777344 149.878906 160.144531 151.609375 C 160.4375 152.964844 161.371094 154.175781 162.121094 155.152344 L 168.578125 163.546875 C 169.050781 164.171875 169.492188 164.707031 170.09375 165.019531 C 171.382812 165.671875 172.972656 165.144531 175.105469 163.363281 C 176.746094 161.996094 178.488281 160.367188 178.453125 158.328125 C 178.433594 156.917969 177.566406 155.65625 176.597656 154.382812 C 174.042969 150.980469 171.152344 147.125 168.269531 144.289062 C 167.785156 143.820312 167.144531 143.574219 166.496094 143.574219 Z M 171.226562 165.710938 C 170.78125 165.710938 170.335938 165.617188 169.902344 165.398438 C 169.222656 165.046875 168.726562 164.445312 168.238281 163.804688 L 161.78125 155.410156 C 161.007812 154.402344 160.039062 153.148438 159.730469 151.699219 C 159.328125 149.800781 160.070312 147.660156 161.714844 145.972656 C 162.554688 145.105469 163.59375 144.347656 165.078125 143.515625 C 166.210938 142.890625 167.644531 143.082031 168.566406 143.988281 C 171.472656 146.84375 174.375 150.714844 176.9375 154.128906 C 177.949219 155.460938 178.859375 156.78125 178.878906 158.320312 C 178.917969 160.550781 177.089844 162.257812 175.378906 163.6875 C 174.269531 164.617188 172.746094 165.710938 171.226562 165.710938 " fill-opacity="1" fill-rule="nonzero"/><path fill="#f5ae3c" d="M 278.855469 159.804688 C 278.863281 161.667969 280.382812 163.183594 282.253906 163.183594 L 313.933594 163.183594 C 315.808594 163.183594 317.332031 161.660156 317.332031 159.785156 L 323.21875 132.0625 C 323.21875 130.226562 321.695312 128.703125 319.816406 128.703125 L 288.136719 128.703125 C 286.265625 128.703125 284.738281 130.226562 284.738281 132.097656 Z M 313.933594 163.511719 L 282.253906 163.511719 C 280.199219 163.511719 278.523438 161.839844 278.523438 159.785156 L 278.53125 159.753906 L 284.414062 132.0625 C 284.410156 130.042969 286.082031 128.375 288.136719 128.375 L 319.816406 128.375 C 321.875 128.375 323.546875 130.042969 323.546875 132.097656 L 317.65625 159.820312 C 317.660156 161.839844 315.988281 163.511719 313.933594 163.511719 " fill-opacity="1" fill-rule="nonzero"/><path fill="#f5ae3c" d="M 221.183594 138.121094 C 221.195312 138.625 221.613281 139.035156 222.128906 139.042969 L 232.371094 139.042969 C 232.890625 139.042969 233.316406 138.621094 233.316406 138.101562 L 235.21875 129.09375 C 235.214844 128.621094 234.792969 128.195312 234.273438 128.195312 L 224.023438 128.195312 C 223.503906 128.195312 223.082031 128.621094 223.082031 129.140625 Z M 232.371094 139.46875 L 222.125 139.46875 C 221.367188 139.457031 220.757812 138.84375 220.757812 138.101562 L 220.761719 138.054688 L 222.660156 129.09375 C 222.65625 128.386719 223.269531 127.769531 224.023438 127.769531 L 234.273438 127.769531 C 235.023438 127.769531 235.640625 128.386719 235.640625 129.140625 L 233.734375 138.144531 C 233.742188 138.855469 233.125 139.46875 232.371094 139.46875 " fill-opacity="1" fill-rule="nonzero"/><path fill="#f5ae3c" d="M 256.265625 134.460938 C 256.269531 134.644531 256.34375 134.816406 256.476562 134.953125 C 256.625 135.097656 256.828125 135.179688 257.035156 135.179688 C 257.039062 135.179688 257.039062 135.179688 257.039062 135.179688 L 264.269531 135.179688 C 264.691406 135.179688 265.042969 134.855469 265.042969 134.457031 L 266.386719 128.539062 C 266.382812 128.140625 266.046875 127.824219 265.613281 127.824219 L 258.382812 127.824219 C 257.957031 127.824219 257.613281 128.148438 257.613281 128.546875 Z M 257.035156 135.253906 C 256.808594 135.253906 256.585938 135.160156 256.425781 135.003906 C 256.277344 134.855469 256.195312 134.660156 256.195312 134.457031 L 256.195312 134.449219 L 257.539062 128.539062 C 257.539062 128.109375 257.917969 127.75 258.382812 127.75 L 265.613281 127.75 C 266.085938 127.75 266.457031 128.101562 266.457031 128.546875 L 265.113281 134.464844 C 265.113281 134.894531 264.734375 135.253906 264.269531 135.253906 L 257.039062 135.253906 C 257.039062 135.253906 257.039062 135.253906 257.035156 135.253906 " fill-opacity="1" fill-rule="nonzero"/><path fill="#f5ae3c" d="M 256.238281 134.691406 C 256.25 134.984375 256.511719 135.21875 256.832031 135.21875 L 264.0625 135.21875 C 264.390625 135.21875 264.65625 134.972656 264.65625 134.671875 L 266.007812 128.714844 C 266.003906 128.457031 265.738281 128.214844 265.40625 128.214844 L 258.179688 128.214844 C 257.847656 128.214844 257.582031 128.460938 257.582031 128.765625 Z M 264.0625 135.644531 L 256.832031 135.644531 C 256.269531 135.644531 255.8125 135.207031 255.8125 134.671875 L 255.816406 134.625 L 257.164062 128.714844 C 257.15625 128.230469 257.613281 127.792969 258.179688 127.792969 L 265.40625 127.792969 C 265.96875 127.792969 266.429688 128.230469 266.429688 128.765625 L 265.078125 134.71875 C 265.082031 135.207031 264.625 135.644531 264.0625 135.644531 " fill-opacity="1" fill-rule="nonzero"/><path fill="#f5ae3c" d="M 216.933594 163.160156 C 216.945312 163.316406 217.09375 163.445312 217.265625 163.445312 L 222.085938 163.445312 C 222.273438 163.445312 222.421875 163.3125 222.421875 163.140625 L 223.316406 159.046875 C 223.3125 158.929688 223.160156 158.789062 222.980469 158.789062 L 218.15625 158.789062 C 217.972656 158.789062 217.824219 158.921875 217.824219 159.09375 Z M 222.085938 163.867188 L 217.265625 163.867188 C 216.847656 163.867188 216.507812 163.542969 216.507812 163.140625 L 216.511719 163.09375 L 217.40625 159.046875 C 217.402344 158.683594 217.734375 158.363281 218.15625 158.363281 L 222.980469 158.363281 C 223.398438 158.363281 223.738281 158.691406 223.738281 159.09375 L 222.839844 163.183594 C 222.84375 163.550781 222.511719 163.867188 222.085938 163.867188 " fill-opacity="1" fill-rule="nonzero"/><path fill="#f5ae3c" d="M 232.648438 160.851562 C 232.660156 162.039062 233.640625 163.003906 234.84375 163.003906 L 256.230469 163.003906 C 257.441406 163.003906 258.425781 162.027344 258.425781 160.832031 L 262.398438 142.21875 C 262.394531 141.0625 261.40625 140.089844 260.199219 140.089844 L 238.8125 140.089844 C 237.601562 140.089844 236.617188 141.0625 236.617188 142.261719 Z M 256.230469 163.425781 L 234.84375 163.425781 C 233.398438 163.425781 232.222656 162.261719 232.222656 160.832031 L 232.230469 160.785156 L 236.195312 142.21875 C 236.191406 140.828125 237.367188 139.664062 238.8125 139.664062 L 260.199219 139.664062 C 261.640625 139.664062 262.816406 140.828125 262.816406 142.261719 L 258.84375 160.875 C 258.851562 162.261719 257.675781 163.425781 256.230469 163.425781 " fill-opacity="1" fill-rule="nonzero"/><path fill="#f4f4f4" d="M 155.960938 99.890625 C 156.957031 99.890625 157.765625 100.699219 157.765625 101.695312 C 157.765625 102.691406 156.957031 103.496094 155.960938 103.496094 C 154.964844 103.496094 154.15625 102.691406 154.15625 101.695312 C 154.15625 100.699219 154.964844 99.890625 155.960938 99.890625 " fill-opacity="1" fill-rule="nonzero"/><path fill="#f4f4f4" d="M 159.113281 134.433594 C 157.871094 132.144531 157.675781 129.140625 158.527344 125.511719 C 158.796875 124.375 159.136719 123.238281 159.46875 122.140625 C 159.984375 120.417969 160.519531 118.636719 160.773438 116.835938 C 161.507812 111.570312 159.792969 106.101562 156.171875 102.203125 L 156.484375 101.917969 C 160.1875 105.902344 161.949219 111.503906 161.191406 116.894531 C 160.9375 118.726562 160.394531 120.523438 159.875 122.261719 C 159.546875 123.355469 159.207031 124.484375 158.941406 125.609375 C 158.113281 129.136719 158.296875 132.035156 159.484375 134.230469 L 159.113281 134.433594 " fill-opacity="1" fill-rule="nonzero"/></svg>